<?xml version="1.0" encoding="UTF-8"?>
<svg xmlns="http://www.w3.org/2000/svg" width="110" height="737" version="1.1" viewBox="0 0 110 737">
  <!-- Generator: Adobe Illustrator 28.6.0, SVG Export Plug-In . SVG Version: 1.2.0 Build 709)  -->
  <g>
    <g id="artwork">
      <polyline points="0 89.5 9.5 89.5 9.5 228.5 0 228.5" fill="none" stroke="#1a1a18" stroke-miterlimit="10"/>
      <line x1="9" y1="158.5" x2="19" y2="158.5" fill="none" stroke="#1a1a18" stroke-miterlimit="10"/>
      <line y1="66.5" x2="19" y2="66.5" fill="none" stroke="#1a1a18" stroke-miterlimit="10"/>
      <polyline points="0 251.5 9.5 251.5 9.5 356.5 0 356.5" fill="none" stroke="#1a1a18" stroke-miterlimit="10"/>
      <line x1="9" y1="303.5" x2="19" y2="303.5" fill="none" stroke="#1a1a18" stroke-miterlimit="10"/>
      <polyline points="0 374.5 9.5 374.5 9.5 606.5 0 606.5" fill="none" stroke="#1a1a18" stroke-miterlimit="10"/>
      <line x1="9" y1="490.5" x2="19" y2="490.5" fill="none" stroke="#1a1a18" stroke-miterlimit="10"/>
      <polyline points="0 624.5 9.5 624.5 9.5 676.5 0 676.5" fill="none" stroke="#1a1a18" stroke-miterlimit="10"/>
      <line x1="9" y1="650.5" x2="19" y2="650.5" fill="none" stroke="#1a1a18" stroke-miterlimit="10"/>
      <polyline points="0 698.5 9.5 698.5 9.5 721.5 0 721.5" fill="none" stroke="#1a1a18" stroke-miterlimit="10"/>
      <line x1="9" y1="709.5" x2="19" y2="709.5" fill="none" stroke="#1a1a18" stroke-miterlimit="10"/>
    </g>
    <g id="legend">
      <g>
        <path d="M30.57,145.59c.5.3.88.7,1.15,1.2.26.5.4,1.07.4,1.69s-.13,1.19-.4,1.69c-.27.5-.65.9-1.16,1.19-.5.29-1.12.44-1.83.44h-2.01v3.35h-1.98v-10h4c.72,0,1.33.15,1.83.44ZM29.64,147.17c-.31-.3-.73-.45-1.28-.45h-1.65v3.52h1.65c.37,0,.68-.07.94-.21.26-.14.46-.34.6-.6.14-.26.21-.58.21-.95,0-.57-.15-1-.46-1.3Z"/>
        <path d="M33.87,147.37h1.93v1.22h.1c.05-.18.16-.37.31-.58s.36-.38.63-.53c.27-.15.61-.22,1.02-.22.13,0,.24,0,.34.02s.19.02.26.04v1.67c-.07-.02-.18-.04-.32-.05-.14-.01-.29-.02-.44-.02-.42,0-.77.08-1.04.23s-.48.36-.62.63-.2.58-.2.93v4.45h-1.97v-7.77Z"/>
        <path d="M41.25,154.87c-.53-.28-.94-.68-1.23-1.21s-.44-1.18-.44-1.94v-.92c0-.77.15-1.42.46-1.94.3-.53.72-.93,1.24-1.21s1.11-.41,1.75-.41,1.27.14,1.78.43c.51.29.92.7,1.21,1.23.29.53.44,1.17.44,1.9v.89h-4.99v.37c0,.51.15.93.45,1.25s.7.49,1.2.49c.26,0,.5-.04.7-.11.21-.08.37-.18.5-.31s.21-.28.23-.44h1.83c-.02.24-.1.5-.23.77-.14.27-.34.53-.6.77s-.59.43-.99.59-.88.23-1.44.23c-.72,0-1.34-.14-1.88-.41ZM44.59,150.51v-.08c0-.35-.06-.66-.19-.92-.13-.26-.31-.46-.54-.61s-.5-.22-.82-.22-.59.07-.82.22-.42.35-.55.61c-.13.26-.2.57-.2.92v.08h3.12Z"/>
        <path d="M48.5,148.26c.29-.36.67-.62,1.15-.78.48-.16.99-.25,1.53-.25.58,0,1.09.09,1.54.27.45.18.8.44,1.05.77s.38.75.38,1.23h-1.71c-.01-.16-.07-.31-.17-.45-.1-.14-.24-.26-.43-.35-.19-.09-.42-.14-.7-.14-.39,0-.69.08-.91.25-.22.17-.33.4-.33.68,0,.2.06.36.19.48s.29.22.49.29c.2.07.42.13.66.17.23.04.46.08.67.11.48.08.9.2,1.28.36.37.16.67.39.88.68.21.29.32.68.32,1.15,0,.53-.13.99-.4,1.36-.26.38-.64.67-1.14.87-.5.2-1.09.3-1.79.3s-1.22-.09-1.7-.28c-.47-.19-.83-.45-1.08-.79s-.37-.74-.37-1.21h1.87c.03.19.1.36.2.5.1.14.25.25.45.33.2.08.44.12.73.12.32,0,.58-.04.78-.13s.35-.21.44-.35c.09-.15.14-.31.14-.49,0-.25-.09-.44-.27-.56-.18-.13-.42-.22-.71-.29-.29-.07-.61-.13-.94-.19-.46-.09-.89-.22-1.27-.38-.38-.16-.69-.39-.92-.68-.23-.3-.34-.7-.34-1.2,0-.58.15-1.05.44-1.41Z"/>
        <path d="M57.59,154.87c-.53-.28-.94-.68-1.23-1.21s-.44-1.18-.44-1.94v-.92c0-.77.15-1.42.46-1.94.3-.53.72-.93,1.24-1.21s1.11-.41,1.75-.41,1.27.14,1.78.43c.51.29.92.7,1.21,1.23.29.53.44,1.17.44,1.9v.89h-4.99v.37c0,.51.15.93.45,1.25s.7.49,1.2.49c.26,0,.5-.04.7-.11.21-.08.37-.18.5-.31s.21-.28.23-.44h1.83c-.02.24-.1.5-.23.77-.14.27-.34.53-.6.77s-.59.43-.99.59-.88.23-1.44.23c-.72,0-1.34-.14-1.88-.41ZM60.93,150.51v-.08c0-.35-.06-.66-.19-.92-.13-.26-.31-.46-.54-.61s-.5-.22-.82-.22-.59.07-.82.22-.42.35-.55.61c-.13.26-.2.57-.2.92v.08h3.12Z"/>
        <path d="M65.29,145.51h1.88v1.93h1.72v1.48h-1.72v3.77c0,.39.09.65.26.79.17.14.46.22.87.22.12,0,.25,0,.37-.01.13,0,.22-.01.29-.02v1.43c-.07.02-.23.03-.46.05s-.46.03-.68.03c-.64,0-1.15-.08-1.53-.23-.38-.15-.64-.4-.81-.73-.16-.33-.24-.76-.24-1.29v-4.02h-1.18v-1.48h1.22v-1.93Z"/>
        <path d="M29.71,162.66c.53.29.95.7,1.24,1.23.29.54.44,1.17.44,1.9v.87c0,.77-.15,1.42-.44,1.96-.3.54-.71.95-1.24,1.23s-1.15.42-1.86.42-1.34-.14-1.88-.42c-.54-.28-.95-.69-1.25-1.23-.3-.54-.44-1.19-.44-1.96v-.86c0-.72.15-1.35.45-1.89.3-.53.71-.95,1.25-1.25.54-.3,1.16-.45,1.87-.45s1.33.14,1.86.43ZM26.95,164.01c-.24.19-.42.45-.54.77-.12.32-.18.68-.18,1.07v.81c0,.39.06.75.17,1.07.11.32.29.58.53.77.24.19.54.29.92.29s.67-.09.91-.29c.23-.19.41-.45.52-.77s.17-.68.17-1.07v-.81c0-.4-.06-.75-.18-1.07-.12-.32-.29-.57-.53-.77-.24-.19-.53-.29-.89-.29s-.66.1-.9.29Z"/>
        <path d="M36.6,170.09c-.29-.1-.54-.25-.75-.44-.21-.19-.37-.42-.49-.7h-.1v3.76h-1.93v-10.36h1.9v1.24h.1c.08-.21.19-.4.33-.56.14-.16.31-.3.51-.42.2-.11.42-.2.66-.26.24-.06.5-.09.77-.09.61,0,1.12.14,1.56.41.43.28.76.67.99,1.19.23.52.34,1.13.34,1.86v1.05c0,.72-.12,1.33-.35,1.85-.23.52-.57.92-1,1.19-.44.28-.96.42-1.57.42-.35,0-.67-.05-.96-.15ZM37.78,168.46c.24-.17.42-.41.55-.72.13-.31.19-.69.19-1.14v-.67c0-.45-.06-.83-.19-1.15-.13-.31-.31-.55-.55-.72-.24-.17-.54-.25-.88-.25s-.62.08-.86.24-.43.39-.56.69-.2.65-.2,1.06v1.01c0,.38.07.71.21,1s.33.51.58.67.54.23.86.23.63-.08.87-.25Z"/>
        <path d="M42.97,160.51h1.88v1.93h1.72v1.48h-1.72v3.77c0,.39.09.65.26.79.17.14.46.22.87.22.12,0,.25,0,.37-.01.13,0,.22-.01.29-.02v1.43c-.07.02-.23.03-.46.05s-.46.03-.68.03c-.64,0-1.15-.08-1.53-.23-.38-.15-.64-.4-.81-.73-.16-.33-.24-.76-.24-1.29v-4.02h-1.18v-1.48h1.22v-1.93Z"/>
        <path d="M48.68,159.3c.22-.2.52-.3.87-.3s.65.1.88.3c.22.2.34.46.34.78s-.11.57-.34.77c-.22.2-.52.3-.88.3s-.65-.1-.87-.3c-.22-.2-.34-.45-.34-.77s.11-.58.34-.78ZM48.6,162.37h1.93v7.77h-1.93v-7.77Z"/>
        <path d="M58.04,162.66c.53.29.95.7,1.24,1.23.29.54.44,1.17.44,1.9v.87c0,.77-.15,1.42-.44,1.96-.3.54-.71.95-1.24,1.23s-1.15.42-1.86.42-1.34-.14-1.88-.42c-.54-.28-.95-.69-1.25-1.23-.3-.54-.44-1.19-.44-1.96v-.86c0-.72.15-1.35.45-1.89.3-.53.71-.95,1.25-1.25.54-.3,1.16-.45,1.87-.45s1.33.14,1.86.43ZM55.28,164.01c-.24.19-.42.45-.54.77-.12.32-.18.68-.18,1.07v.81c0,.39.06.75.17,1.07.11.32.29.58.53.77.24.19.54.29.92.29s.67-.09.91-.29c.23-.19.41-.45.52-.77s.17-.68.17-1.07v-.81c0-.4-.06-.75-.18-1.07-.12-.32-.29-.57-.53-.77-.24-.19-.53-.29-.89-.29s-.66.1-.9.29Z"/>
        <path d="M61.66,162.37h1.88v1.37h.1c.06-.21.18-.42.35-.65.17-.23.41-.43.73-.59s.73-.25,1.24-.25c.78,0,1.41.22,1.88.67.47.45.71,1.12.71,2.02v5.21h-1.93v-4.67c0-.38-.06-.7-.19-.93-.12-.23-.29-.41-.5-.52-.21-.11-.45-.17-.71-.17-.35,0-.64.08-.89.25s-.43.4-.56.69c-.13.3-.19.64-.19,1.03v4.31h-1.93v-7.77Z"/>
        <path d="M70.95,163.26c.29-.36.67-.62,1.15-.78.48-.16.99-.25,1.53-.25.58,0,1.09.09,1.54.27.45.18.8.44,1.05.77s.38.75.38,1.23h-1.71c-.01-.16-.07-.31-.17-.45-.1-.14-.24-.26-.43-.35-.19-.09-.42-.14-.7-.14-.39,0-.69.08-.91.25-.22.17-.33.4-.33.68,0,.2.06.36.19.48s.29.22.49.29c.2.07.42.13.66.17.23.04.46.08.67.11.48.08.9.2,1.28.36.37.16.67.39.88.68.21.29.32.68.32,1.15,0,.53-.13.99-.4,1.36-.26.38-.64.67-1.14.87-.5.2-1.09.3-1.79.3s-1.22-.09-1.7-.28c-.47-.19-.83-.45-1.08-.79s-.37-.74-.37-1.21h1.87c.03.19.1.36.2.5.1.14.25.25.45.33.2.08.44.12.73.12.32,0,.58-.04.78-.13s.35-.21.44-.35c.09-.15.14-.31.14-.49,0-.25-.09-.44-.27-.56-.18-.13-.42-.22-.71-.29-.29-.07-.61-.13-.94-.19-.46-.09-.89-.22-1.27-.38-.38-.16-.69-.39-.92-.68-.23-.3-.34-.7-.34-1.2,0-.58.15-1.05.44-1.41Z"/>
      </g>
      <g>
        <path d="M26.37,71.14l-2.64-10h2.14l1.5,7.26h.1l1.77-7.26h1.71l1.77,7.26h.1l1.49-7.26h2.15l-2.64,10h-1.82l-1.85-6.97h-.08l-1.85,6.97h-1.82Z"/>
        <path d="M42.52,63.66c.53.29.95.7,1.24,1.23.29.54.44,1.17.44,1.9v.87c0,.77-.15,1.42-.44,1.96-.3.54-.71.95-1.24,1.23s-1.15.42-1.86.42-1.34-.14-1.88-.42c-.54-.28-.95-.69-1.25-1.23-.3-.54-.44-1.19-.44-1.96v-.86c0-.72.15-1.35.45-1.89.3-.53.71-.95,1.25-1.25.54-.3,1.16-.45,1.87-.45s1.33.14,1.86.43ZM39.76,65.01c-.24.19-.42.45-.54.77-.12.32-.18.68-.18,1.07v.81c0,.39.06.75.17,1.07.11.32.29.58.53.77.24.19.54.29.92.29s.67-.09.91-.29c.23-.19.41-.45.52-.77s.17-.68.17-1.07v-.81c0-.4-.06-.75-.18-1.07-.12-.32-.29-.57-.53-.77-.24-.19-.53-.29-.89-.29s-.66.1-.9.29Z"/>
        <path d="M46.22,63.37h1.93v1.22h.1c.05-.18.16-.37.31-.58s.36-.38.63-.53c.27-.15.61-.22,1.02-.22.13,0,.24,0,.34.02s.19.02.26.04v1.67c-.07-.02-.18-.04-.32-.05-.14-.01-.29-.02-.44-.02-.42,0-.77.08-1.04.23s-.48.36-.62.63-.2.58-.2.93v4.45h-1.97v-7.77Z"/>
        <path d="M54.32,71.14h-1.93v-10.53h1.93v6h.09l2.59-3.25h2.18l-2.83,3.36,3.02,4.42h-2.25l-2.24-3.32-.56.62v2.7Z"/>
        <path d="M61.42,64.92h-1.27v-1.48h1.27v-.77c0-.77.21-1.33.62-1.68.41-.35,1.09-.52,2.05-.52.2,0,.4,0,.61.02.21.01.37.03.48.04v1.38c-.07,0-.18-.02-.33-.03-.15,0-.28-.01-.39-.01-.41,0-.7.07-.88.21-.18.14-.27.39-.27.75v.61h1.74v1.48h-1.71v6.22h-1.92v-6.22Z"/>
        <path d="M66.95,60.62h1.93v10.53h-1.93v-10.53Z"/>
        <path d="M76.29,63.66c.53.29.95.7,1.24,1.23.29.54.44,1.17.44,1.9v.87c0,.77-.15,1.42-.44,1.96-.3.54-.71.95-1.24,1.23s-1.15.42-1.86.42-1.34-.14-1.88-.42c-.54-.28-.95-.69-1.25-1.23-.3-.54-.44-1.19-.44-1.96v-.86c0-.72.15-1.35.45-1.89.3-.53.71-.95,1.25-1.25.54-.3,1.16-.45,1.87-.45s1.33.14,1.86.43ZM73.53,65.01c-.24.19-.42.45-.54.77-.12.32-.18.68-.18,1.07v.81c0,.39.06.75.17,1.07.11.32.29.58.53.77.24.19.54.29.92.29s.67-.09.91-.29c.23-.19.41-.45.52-.77s.17-.68.17-1.07v-.81c0-.4-.06-.75-.18-1.07-.12-.32-.29-.57-.53-.77-.24-.19-.53-.29-.89-.29s-.66.1-.9.29Z"/>
        <path d="M88.16,71.14h-1.99l-1.5-5.53h-.06l-1.47,5.53h-2.01l-2.09-7.77h2.04l1.14,5.74h.07l1.45-5.74h1.81l1.48,5.74h.08l1.16-5.74h1.92l-2.02,7.77Z"/>
      </g>
      <g>
        <path d="M28.39,289.14c1.02,0,1.85.2,2.51.59.66.39,1.15.96,1.48,1.7.32.74.49,1.64.49,2.69s-.16,1.96-.49,2.71-.82,1.33-1.48,1.72c-.66.4-1.5.59-2.5.59h-3.65v-10h3.65ZM26.72,297.52h1.41c.46,0,.87-.07,1.21-.21.34-.14.62-.35.84-.63.22-.28.38-.63.49-1.05.11-.42.17-.91.17-1.48,0-.75-.1-1.38-.29-1.88-.19-.5-.49-.88-.89-1.14-.4-.25-.91-.38-1.53-.38h-1.41v6.77Z"/>
        <path d="M39.94,291.66c.53.29.95.7,1.24,1.23.29.54.44,1.17.44,1.9v.87c0,.77-.15,1.42-.44,1.96-.3.54-.71.95-1.24,1.23s-1.15.42-1.86.42-1.34-.14-1.88-.42c-.54-.28-.95-.69-1.25-1.23-.3-.54-.44-1.19-.44-1.96v-.86c0-.72.15-1.35.45-1.89.3-.53.71-.95,1.25-1.25.54-.3,1.16-.45,1.87-.45s1.33.14,1.86.43ZM37.18,293.01c-.24.19-.42.45-.54.77-.12.32-.18.68-.18,1.07v.81c0,.39.06.75.17,1.07.11.32.29.58.53.77.24.19.54.29.92.29s.67-.09.91-.29c.23-.19.41-.45.52-.77s.17-.68.17-1.07v-.81c0-.4-.06-.75-.18-1.07-.12-.32-.29-.57-.53-.77-.24-.19-.53-.29-.89-.29s-.66.1-.9.29Z"/>
        <path d="M43.21,294.74c0-.71.14-1.33.42-1.86.28-.52.68-.93,1.2-1.22.52-.29,1.13-.43,1.83-.43s1.25.12,1.73.37c.47.25.84.57,1.09.98.25.41.38.86.39,1.36h-1.78c-.02-.18-.08-.35-.18-.53s-.24-.33-.44-.45c-.19-.12-.45-.18-.77-.18-.5,0-.89.18-1.16.54-.27.36-.41.84-.41,1.45v.94c0,.63.14,1.13.42,1.49s.66.54,1.16.54c.31,0,.56-.05.76-.14s.34-.22.44-.39c.1-.17.17-.36.2-.57h1.78c0,.49-.14.94-.38,1.34s-.6.72-1.08.95c-.48.23-1.07.35-1.78.35s-1.33-.14-1.85-.44c-.52-.29-.91-.7-1.19-1.23-.28-.53-.42-1.16-.42-1.9v-.97Z"/>
        <path d="M58.56,299.14h-1.88v-1.3h-.1c-.07.21-.2.42-.39.63-.19.22-.43.4-.75.55-.31.15-.7.23-1.16.23-.51,0-.96-.09-1.35-.27-.39-.18-.7-.46-.92-.85-.22-.39-.33-.89-.33-1.5v-5.27h1.93v4.76c0,.39.07.7.2.93.13.22.31.38.52.46.21.08.44.13.68.13.3,0,.57-.07.81-.21s.44-.33.58-.57c.14-.24.22-.52.22-.83v-4.67h1.93v7.77Z"/>
        <path d="M60.86,291.37h1.88v1.28h.1c.06-.2.16-.4.32-.62.15-.21.38-.4.67-.56s.67-.23,1.14-.23c.39,0,.73.06,1.02.19.29.13.53.3.71.52.19.22.32.47.4.75h.07c.09-.24.24-.47.44-.7.2-.22.46-.41.78-.55.32-.14.7-.22,1.14-.22.79,0,1.41.22,1.85.66.44.44.66,1.04.66,1.8v5.43h-1.93v-4.83c0-.33-.06-.6-.16-.82-.11-.22-.27-.38-.47-.49-.2-.11-.43-.17-.7-.17s-.5.06-.71.19-.38.31-.5.54c-.12.23-.19.52-.19.85v4.72h-1.86v-4.8c0-.34-.06-.62-.18-.85-.12-.22-.28-.39-.48-.5-.2-.11-.44-.17-.7-.17s-.49.06-.7.18c-.21.12-.37.3-.49.53-.12.23-.18.52-.18.86v4.74h-1.93v-7.77Z"/>
        <path d="M75.6,298.87c-.53-.28-.94-.68-1.23-1.21s-.44-1.18-.44-1.94v-.92c0-.77.15-1.42.46-1.94.3-.53.72-.93,1.24-1.21s1.11-.41,1.75-.41,1.27.14,1.78.43c.51.29.92.7,1.21,1.23.29.53.44,1.17.44,1.9v.89h-4.99v.37c0,.51.15.93.45,1.25s.7.49,1.2.49c.26,0,.5-.04.7-.11.21-.08.37-.18.5-.31s.21-.28.23-.44h1.83c-.02.24-.1.5-.23.77-.14.27-.34.53-.6.77s-.59.43-.99.59-.88.23-1.44.23c-.72,0-1.34-.14-1.88-.41ZM78.94,294.51v-.08c0-.35-.06-.66-.19-.92-.13-.26-.31-.46-.54-.61s-.5-.22-.82-.22-.59.07-.82.22-.42.35-.55.61c-.13.26-.2.57-.2.92v.08h3.12Z"/>
        <path d="M82.72,291.37h1.88v1.37h.1c.06-.21.18-.42.35-.65.17-.23.41-.43.73-.59s.73-.25,1.24-.25c.78,0,1.41.22,1.88.67.47.45.71,1.12.71,2.02v5.21h-1.93v-4.67c0-.38-.06-.7-.19-.93-.12-.23-.29-.41-.5-.52-.21-.11-.45-.17-.71-.17-.35,0-.64.08-.89.25s-.43.4-.56.69c-.13.3-.19.64-.19,1.03v4.31h-1.93v-7.77Z"/>
        <path d="M92.39,289.51h1.88v1.93h1.72v1.48h-1.72v3.77c0,.39.09.65.26.79.17.14.46.22.87.22.12,0,.25,0,.37-.01.13,0,.22-.01.29-.02v1.43c-.07.02-.23.03-.46.05s-.46.03-.68.03c-.64,0-1.15-.08-1.53-.23-.38-.15-.64-.4-.81-.73-.16-.33-.24-.76-.24-1.29v-4.02h-1.18v-1.48h1.22v-1.93Z"/>
        <path d="M24.95,313.62c-.47-.43-.71-1-.71-1.74s.24-1.26.71-1.68c.47-.42,1.16-.63,2.06-.63h1.9v-.7c0-.39-.12-.68-.35-.87s-.55-.29-.94-.29c-.26,0-.48.04-.66.11-.17.07-.31.17-.41.29-.1.12-.16.27-.2.43h-1.82c.02-.32.1-.62.23-.89.13-.28.32-.52.57-.73s.57-.38.95-.49c.39-.12.84-.18,1.38-.18.58,0,1.11.09,1.59.26s.86.45,1.15.84c.29.39.43.92.43,1.57v5.22h-1.82v-.99h-.09c-.1.19-.25.37-.43.54-.18.17-.41.3-.69.41-.28.1-.61.16-.99.16-.76,0-1.37-.21-1.85-.64ZM28.17,312.67c.22-.11.4-.27.53-.46s.2-.42.2-.67v-.81h-1.49c-.43,0-.75.1-.95.29-.21.19-.31.44-.31.74,0,.37.13.64.39.81s.55.26.88.26c.27,0,.52-.06.74-.17Z"/>
        <path d="M32.69,309.74c0-.71.14-1.33.42-1.86.28-.52.68-.93,1.2-1.22.52-.29,1.13-.43,1.83-.43s1.25.12,1.73.37c.47.25.84.57,1.09.98.25.41.38.86.39,1.36h-1.78c-.02-.18-.08-.35-.18-.53s-.24-.33-.44-.45c-.19-.12-.45-.18-.77-.18-.5,0-.89.18-1.16.54-.27.36-.41.84-.41,1.45v.94c0,.63.14,1.13.42,1.49s.66.54,1.16.54c.31,0,.56-.05.76-.14s.34-.22.44-.39c.1-.17.17-.36.2-.57h1.78c0,.49-.14.94-.38,1.34s-.6.72-1.08.95c-.48.23-1.07.35-1.78.35s-1.33-.14-1.85-.44c-.52-.29-.91-.7-1.19-1.23-.28-.53-.42-1.16-.42-1.9v-.97Z"/>
        <path d="M41.73,304.51h1.88v1.93h1.72v1.48h-1.72v3.77c0,.39.09.65.26.79.17.14.46.22.87.22.12,0,.25,0,.37-.01.13,0,.22-.01.29-.02v1.43c-.07.02-.23.03-.46.05s-.46.03-.68.03c-.64,0-1.15-.08-1.53-.23-.38-.15-.64-.4-.81-.73-.16-.33-.24-.76-.24-1.29v-4.02h-1.18v-1.48h1.22v-1.93Z"/>
        <path d="M47.44,303.3c.22-.2.52-.3.87-.3s.65.1.88.3c.22.2.34.46.34.78s-.11.57-.34.77c-.22.2-.52.3-.88.3s-.65-.1-.87-.3c-.22-.2-.34-.45-.34-.77s.11-.58.34-.78ZM47.35,306.37h1.93v7.77h-1.93v-7.77Z"/>
        <path d="M56.79,306.66c.53.29.95.7,1.24,1.23.29.54.44,1.17.44,1.9v.87c0,.77-.15,1.42-.44,1.96-.3.54-.71.95-1.24,1.23s-1.15.42-1.86.42-1.34-.14-1.88-.42c-.54-.28-.95-.69-1.25-1.23-.3-.54-.44-1.19-.44-1.96v-.86c0-.72.15-1.35.45-1.89.3-.53.71-.95,1.25-1.25.54-.3,1.16-.45,1.87-.45s1.33.14,1.86.43ZM54.03,308.01c-.24.19-.42.45-.54.77-.12.32-.18.68-.18,1.07v.81c0,.39.06.75.17,1.07.11.32.29.58.53.77.24.19.54.29.92.29s.67-.09.91-.29c.23-.19.41-.45.52-.77s.17-.68.17-1.07v-.81c0-.4-.06-.75-.18-1.07-.12-.32-.29-.57-.53-.77-.24-.19-.53-.29-.89-.29s-.66.1-.9.29Z"/>
        <path d="M60.42,306.37h1.88v1.37h.1c.06-.21.18-.42.35-.65.17-.23.41-.43.73-.59s.73-.25,1.24-.25c.78,0,1.41.22,1.88.67.47.45.71,1.12.71,2.02v5.21h-1.93v-4.67c0-.38-.06-.7-.19-.93-.12-.23-.29-.41-.5-.52-.21-.11-.45-.17-.71-.17-.35,0-.64.08-.89.25s-.43.4-.56.69c-.13.3-.19.64-.19,1.03v4.31h-1.93v-7.77Z"/>
        <path d="M69.7,307.26c.29-.36.67-.62,1.15-.78.48-.16.99-.25,1.53-.25.58,0,1.09.09,1.54.27.45.18.8.44,1.05.77s.38.75.38,1.23h-1.71c-.01-.16-.07-.31-.17-.45-.1-.14-.24-.26-.43-.35-.19-.09-.42-.14-.7-.14-.39,0-.69.08-.91.25-.22.17-.33.4-.33.68,0,.2.06.36.19.48s.29.22.49.29c.2.07.42.13.66.17.23.04.46.08.67.11.48.08.9.2,1.28.36.37.16.67.39.88.68.21.29.32.68.32,1.15,0,.53-.13.99-.4,1.36-.26.38-.64.67-1.14.87-.5.2-1.09.3-1.79.3s-1.22-.09-1.7-.28c-.47-.19-.83-.45-1.08-.79s-.37-.74-.37-1.21h1.87c.03.19.1.36.2.5.1.14.25.25.45.33.2.08.44.12.73.12.32,0,.58-.04.78-.13s.35-.21.44-.35c.09-.15.14-.31.14-.49,0-.25-.09-.44-.27-.56-.18-.13-.42-.22-.71-.29-.29-.07-.61-.13-.94-.19-.46-.09-.89-.22-1.27-.38-.38-.16-.69-.39-.92-.68-.23-.3-.34-.7-.34-1.2,0-.58.15-1.05.44-1.41Z"/>
      </g>
      <g>
        <path d="M32.39,485.36c-.34.68-.83,1.2-1.47,1.57-.64.36-1.4.55-2.3.55s-1.65-.18-2.3-.55c-.64-.36-1.13-.89-1.48-1.57-.34-.68-.51-1.49-.51-2.43v-1.28c0-.95.17-1.76.51-2.44.34-.68.83-1.2,1.48-1.57.64-.36,1.41-.54,2.3-.54s1.66.18,2.3.55c.64.37,1.13.89,1.47,1.57.34.68.51,1.49.51,2.43v1.28c0,.94-.17,1.75-.51,2.43ZM30.6,480.03c-.2-.43-.46-.75-.81-.96s-.73-.32-1.17-.32-.84.11-1.18.32c-.34.21-.61.54-.8.96-.2.43-.29.96-.29,1.61v1.3c0,.64.1,1.17.29,1.6s.46.75.8.96c.34.21.73.32,1.18.32s.83-.11,1.17-.32c.34-.21.61-.53.81-.96s.29-.96.29-1.6v-1.3c0-.64-.1-1.18-.29-1.61Z"/>
        <path d="M41.72,487.29h-1.88v-1.3h-.1c-.07.21-.2.42-.39.63-.19.22-.43.4-.75.55-.31.15-.7.23-1.16.23-.51,0-.96-.09-1.35-.27-.39-.18-.7-.46-.92-.85-.22-.39-.33-.89-.33-1.5v-5.27h1.93v4.76c0,.39.07.7.2.93.13.22.31.38.52.46.21.08.44.13.68.13.3,0,.57-.07.81-.21s.44-.33.58-.57c.14-.24.22-.52.22-.83v-4.67h1.93v7.77Z"/>
        <path d="M44.6,477.66h1.88v1.93h1.72v1.48h-1.72v3.77c0,.39.09.65.26.79.17.14.46.22.87.22.12,0,.25,0,.37-.01.13,0,.22-.01.29-.02v1.43c-.07.02-.23.03-.46.05s-.46.03-.68.03c-.64,0-1.15-.08-1.53-.23-.38-.15-.64-.4-.81-.73-.16-.33-.24-.76-.24-1.29v-4.02h-1.18v-1.48h1.22v-1.93Z"/>
        <path d="M53.36,487.24c-.29-.1-.54-.25-.75-.44-.21-.19-.37-.42-.49-.7h-.1v3.76h-1.93v-10.36h1.9v1.24h.1c.08-.21.19-.4.33-.56.14-.16.31-.3.51-.42.2-.11.42-.2.66-.26.24-.06.5-.09.77-.09.61,0,1.12.14,1.56.41.43.28.76.67.99,1.19.23.52.34,1.13.34,1.86v1.05c0,.72-.12,1.33-.35,1.85-.23.52-.57.92-1,1.19-.44.28-.96.42-1.57.42-.35,0-.67-.05-.96-.15ZM54.54,485.6c.24-.17.42-.41.55-.72.13-.31.19-.69.19-1.14v-.67c0-.45-.06-.83-.19-1.15-.13-.31-.31-.55-.55-.72-.24-.17-.54-.25-.88-.25s-.62.08-.86.24-.43.39-.56.69-.2.65-.2,1.06v1.01c0,.38.07.71.21,1s.33.51.58.67.54.23.86.23.63-.08.87-.25Z"/>
        <path d="M66.03,487.29h-1.88v-1.3h-.1c-.07.21-.2.42-.39.63-.19.22-.43.4-.75.55-.31.15-.7.23-1.16.23-.51,0-.96-.09-1.35-.27-.39-.18-.7-.46-.92-.85-.22-.39-.33-.89-.33-1.5v-5.27h1.93v4.76c0,.39.07.7.2.93.13.22.31.38.52.46.21.08.44.13.68.13.3,0,.57-.07.81-.21s.44-.33.58-.57c.14-.24.22-.52.22-.83v-4.67h1.93v7.77Z"/>
        <path d="M68.91,477.66h1.88v1.93h1.72v1.48h-1.72v3.77c0,.39.09.65.26.79.17.14.46.22.87.22.12,0,.25,0,.37-.01.13,0,.22-.01.29-.02v1.43c-.07.02-.23.03-.46.05s-.46.03-.68.03c-.64,0-1.15-.08-1.53-.23-.38-.15-.64-.4-.81-.73-.16-.33-.24-.76-.24-1.29v-4.02h-1.18v-1.48h1.22v-1.93Z"/>
        <path d="M29.71,494.81c.53.29.95.7,1.24,1.23.29.54.44,1.17.44,1.9v.87c0,.77-.15,1.42-.44,1.96-.3.54-.71.95-1.24,1.23s-1.15.42-1.86.42-1.34-.14-1.88-.42c-.54-.28-.95-.69-1.25-1.23-.3-.54-.44-1.19-.44-1.96v-.86c0-.72.15-1.35.45-1.89.3-.53.71-.95,1.25-1.25.54-.3,1.16-.45,1.87-.45s1.33.14,1.86.43ZM26.95,496.16c-.24.19-.42.45-.54.77-.12.32-.18.68-.18,1.07v.81c0,.39.06.75.17,1.07.11.32.29.58.53.77.24.19.54.29.92.29s.67-.09.91-.29c.23-.19.41-.45.52-.77s.17-.68.17-1.07v-.81c0-.4-.06-.75-.18-1.07-.12-.32-.29-.57-.53-.77-.24-.19-.53-.29-.89-.29s-.66.1-.9.29Z"/>
        <path d="M36.6,502.24c-.29-.1-.54-.25-.75-.44-.21-.19-.37-.42-.49-.7h-.1v3.76h-1.93v-10.36h1.9v1.24h.1c.08-.21.19-.4.33-.56.14-.16.31-.3.51-.42.2-.11.42-.2.66-.26.24-.06.5-.09.77-.09.61,0,1.12.14,1.56.41.43.28.76.67.99,1.19.23.52.34,1.13.34,1.86v1.05c0,.72-.12,1.33-.35,1.85-.23.52-.57.92-1,1.19-.44.28-.96.42-1.57.42-.35,0-.67-.05-.96-.15ZM37.78,500.6c.24-.17.42-.41.55-.72.13-.31.19-.69.19-1.14v-.67c0-.45-.06-.83-.19-1.15-.13-.31-.31-.55-.55-.72-.24-.17-.54-.25-.88-.25s-.62.08-.86.24-.43.39-.56.69-.2.65-.2,1.06v1.01c0,.38.07.71.21,1s.33.51.58.67.54.23.86.23.63-.08.87-.25Z"/>
        <path d="M42.97,492.66h1.88v1.93h1.72v1.48h-1.72v3.77c0,.39.09.65.26.79.17.14.46.22.87.22.12,0,.25,0,.37-.01.13,0,.22-.01.29-.02v1.43c-.07.02-.23.03-.46.05s-.46.03-.68.03c-.64,0-1.15-.08-1.53-.23-.38-.15-.64-.4-.81-.73-.16-.33-.24-.76-.24-1.29v-4.02h-1.18v-1.48h1.22v-1.93Z"/>
        <path d="M48.68,491.44c.22-.2.52-.3.87-.3s.65.1.88.3c.22.2.34.46.34.78s-.11.57-.34.77c-.22.2-.52.3-.88.3s-.65-.1-.87-.3c-.22-.2-.34-.45-.34-.77s.11-.58.34-.78ZM48.6,494.52h1.93v7.77h-1.93v-7.77Z"/>
        <path d="M58.04,494.81c.53.29.95.7,1.24,1.23.29.54.44,1.17.44,1.9v.87c0,.77-.15,1.42-.44,1.96-.3.54-.71.95-1.24,1.23s-1.15.42-1.86.42-1.34-.14-1.88-.42c-.54-.28-.95-.69-1.25-1.23-.3-.54-.44-1.19-.44-1.96v-.86c0-.72.15-1.35.45-1.89.3-.53.71-.95,1.25-1.25.54-.3,1.16-.45,1.87-.45s1.33.14,1.86.43ZM55.28,496.16c-.24.19-.42.45-.54.77-.12.32-.18.68-.18,1.07v.81c0,.39.06.75.17,1.07.11.32.29.58.53.77.24.19.54.29.92.29s.67-.09.91-.29c.23-.19.41-.45.52-.77s.17-.68.17-1.07v-.81c0-.4-.06-.75-.18-1.07-.12-.32-.29-.57-.53-.77-.24-.19-.53-.29-.89-.29s-.66.1-.9.29Z"/>
        <path d="M61.66,494.52h1.88v1.37h.1c.06-.21.18-.42.35-.65.17-.23.41-.43.73-.59s.73-.25,1.24-.25c.78,0,1.41.22,1.88.67.47.45.71,1.12.71,2.02v5.21h-1.93v-4.67c0-.38-.06-.7-.19-.93-.12-.23-.29-.41-.5-.52-.21-.11-.45-.17-.71-.17-.35,0-.64.08-.89.25s-.43.4-.56.69c-.13.3-.19.64-.19,1.03v4.31h-1.93v-7.77Z"/>
        <path d="M70.95,495.4c.29-.36.67-.62,1.15-.78.48-.16.99-.25,1.53-.25.58,0,1.09.09,1.54.27.45.18.8.44,1.05.77s.38.75.38,1.23h-1.71c-.01-.16-.07-.31-.17-.45-.1-.14-.24-.26-.43-.35-.19-.09-.42-.14-.7-.14-.39,0-.69.08-.91.25-.22.17-.33.4-.33.68,0,.2.06.36.19.48s.29.22.49.29c.2.07.42.13.66.17.23.04.46.08.67.11.48.08.9.2,1.28.36.37.16.67.39.88.68.21.29.32.68.32,1.15,0,.53-.13.99-.4,1.36-.26.38-.64.67-1.14.87-.5.2-1.09.3-1.79.3s-1.22-.09-1.7-.28c-.47-.19-.83-.45-1.08-.79s-.37-.74-.37-1.21h1.87c.03.19.1.36.2.5.1.14.25.25.45.33.2.08.44.12.73.12.32,0,.58-.04.78-.13s.35-.21.44-.35c.09-.15.14-.31.14-.49,0-.25-.09-.44-.27-.56-.18-.13-.42-.22-.71-.29-.29-.07-.61-.13-.94-.19-.46-.09-.89-.22-1.27-.38-.38-.16-.69-.39-.92-.68-.23-.3-.34-.7-.34-1.2,0-.58.15-1.05.44-1.41Z"/>
      </g>
      <g>
        <path d="M26.04,643.92c.03.19.1.37.21.53.11.16.25.31.42.43.18.12.38.22.62.29s.51.1.8.1c.41,0,.76-.06,1.04-.18.28-.12.49-.28.63-.49.14-.21.21-.45.21-.72,0-.35-.13-.62-.38-.82-.25-.2-.64-.36-1.16-.48l-1.55-.36c-.52-.12-.97-.3-1.35-.54s-.67-.54-.88-.92c-.21-.37-.31-.81-.31-1.31,0-.61.16-1.14.48-1.6s.76-.81,1.32-1.05,1.21-.37,1.94-.37,1.41.13,1.95.38c.54.25.96.59,1.25,1.02.29.43.46.9.49,1.42h-1.88c-.04-.24-.14-.45-.3-.64-.15-.19-.36-.34-.62-.45s-.57-.17-.92-.17c-.54,0-.97.13-1.28.38-.31.25-.47.57-.47.96,0,.3.12.55.36.75s.58.34,1.01.44l1.55.36c.54.12,1.01.3,1.41.52.4.23.71.53.94.9.22.37.34.84.34,1.4,0,.62-.16,1.17-.47,1.64-.31.47-.76.84-1.35,1.1s-1.3.4-2.15.4c-.63,0-1.19-.08-1.66-.23-.47-.15-.87-.36-1.19-.63-.32-.27-.56-.58-.73-.93s-.26-.73-.28-1.12h1.91Z"/>
        <path d="M38.93,639.16c.53.29.95.7,1.24,1.23.29.54.44,1.17.44,1.9v.87c0,.77-.15,1.42-.44,1.96-.3.54-.71.95-1.24,1.23s-1.15.42-1.86.42-1.34-.14-1.88-.42c-.54-.28-.95-.69-1.25-1.23-.3-.54-.44-1.19-.44-1.96v-.86c0-.72.15-1.35.45-1.89.3-.53.71-.95,1.25-1.25.54-.3,1.16-.45,1.87-.45s1.33.14,1.86.43ZM36.17,640.51c-.24.19-.42.45-.54.77-.12.32-.18.68-.18,1.07v.81c0,.39.06.75.17,1.07.11.32.29.58.53.77.24.19.54.29.92.29s.67-.09.91-.29c.23-.19.41-.45.52-.77s.17-.68.17-1.07v-.81c0-.4-.06-.75-.18-1.07-.12-.32-.29-.57-.53-.77-.24-.19-.53-.29-.89-.29s-.66.1-.9.29Z"/>
        <path d="M49.37,646.64h-1.88v-1.3h-.1c-.07.21-.2.42-.39.63-.19.22-.43.4-.75.55-.31.15-.7.23-1.16.23-.51,0-.96-.09-1.35-.27-.39-.18-.7-.46-.92-.85-.22-.39-.33-.89-.33-1.5v-5.27h1.93v4.76c0,.39.07.7.2.93.13.22.31.38.52.46.21.08.44.13.68.13.3,0,.57-.07.81-.21s.44-.33.58-.57c.14-.24.22-.52.22-.83v-4.67h1.93v7.77Z"/>
        <path d="M51.75,638.87h1.93v1.22h.1c.05-.18.16-.37.31-.58s.36-.38.63-.53c.27-.15.61-.22,1.02-.22.13,0,.24,0,.34.02s.19.02.26.04v1.67c-.07-.02-.18-.04-.32-.05-.14-.01-.29-.02-.44-.02-.42,0-.77.08-1.04.23s-.48.36-.62.63-.2.58-.2.93v4.45h-1.97v-7.77Z"/>
        <path d="M57.46,642.24c0-.71.14-1.33.42-1.86.28-.52.68-.93,1.2-1.22.52-.29,1.13-.43,1.83-.43s1.25.12,1.73.37c.47.25.84.57,1.09.98.25.41.38.86.39,1.36h-1.78c-.02-.18-.08-.35-.18-.53s-.24-.33-.44-.45c-.19-.12-.45-.18-.77-.18-.5,0-.89.18-1.16.54-.27.36-.41.84-.41,1.45v.94c0,.63.14,1.13.42,1.49s.66.54,1.16.54c.31,0,.56-.05.76-.14s.34-.22.44-.39c.1-.17.17-.36.2-.57h1.78c0,.49-.14.94-.38,1.34s-.6.72-1.08.95c-.48.23-1.07.35-1.78.35s-1.33-.14-1.85-.44c-.52-.29-.91-.7-1.19-1.23-.28-.53-.42-1.16-.42-1.9v-.97Z"/>
        <path d="M67.31,646.37c-.53-.28-.94-.68-1.23-1.21s-.44-1.18-.44-1.94v-.92c0-.77.15-1.42.46-1.94.3-.53.72-.93,1.24-1.21s1.11-.41,1.75-.41,1.27.14,1.78.43c.51.29.92.7,1.21,1.23.29.53.44,1.17.44,1.9v.89h-4.99v.37c0,.51.15.93.45,1.25s.7.49,1.2.49c.26,0,.5-.04.7-.11.21-.08.37-.18.5-.31s.21-.28.23-.44h1.83c-.02.24-.1.5-.23.77-.14.27-.34.53-.6.77s-.59.43-.99.59-.88.23-1.44.23c-.72,0-1.34-.14-1.88-.41ZM70.65,642.01v-.08c0-.35-.06-.66-.19-.92-.13-.26-.31-.46-.54-.61s-.5-.22-.82-.22-.59.07-.82.22-.42.35-.55.61c-.13.26-.2.57-.2.92v.08h3.12Z"/>
        <path d="M31.46,661.64h-1.88v-1.3h-.1c-.07.21-.2.42-.39.63-.19.22-.43.4-.75.55-.31.15-.7.23-1.16.23-.51,0-.96-.09-1.35-.27-.39-.18-.7-.46-.92-.85-.22-.39-.33-.89-.33-1.5v-5.27h1.93v4.76c0,.39.07.7.2.93.13.22.31.38.52.46.21.08.44.13.68.13.3,0,.57-.07.81-.21s.44-.33.58-.57c.14-.24.22-.52.22-.83v-4.67h1.93v7.77Z"/>
        <path d="M37.03,661.59c-.29-.1-.54-.25-.75-.44-.21-.19-.37-.42-.49-.7h-.1v3.76h-1.93v-10.36h1.9v1.24h.1c.08-.21.19-.4.33-.56.14-.16.31-.3.51-.42.2-.11.42-.2.66-.26.24-.06.5-.09.77-.09.61,0,1.12.14,1.56.41.43.28.76.67.99,1.19.23.52.34,1.13.34,1.86v1.05c0,.72-.12,1.33-.35,1.85-.23.52-.57.92-1,1.19-.44.28-.96.42-1.57.42-.35,0-.67-.05-.96-.15ZM38.21,659.96c.24-.17.42-.41.55-.72.13-.31.19-.69.19-1.14v-.67c0-.45-.06-.83-.19-1.15-.13-.31-.31-.55-.55-.72-.24-.17-.54-.25-.88-.25s-.62.08-.86.24-.43.39-.56.69-.2.65-.2,1.06v1.01c0,.38.07.71.21,1s.33.51.58.67.54.23.86.23.63-.08.87-.25Z"/>
        <path d="M46.45,653.92c.3.1.55.25.76.44.21.19.37.42.47.68h.09v-3.93h1.93v10.53h-1.9v-1.25h-.1c-.06.2-.16.38-.3.55-.14.16-.31.3-.51.42s-.42.21-.67.27c-.25.07-.52.1-.8.1-.59,0-1.1-.14-1.53-.41-.43-.27-.77-.66-1.01-1.17-.24-.51-.36-1.12-.36-1.83v-1.16c0-.71.12-1.32.36-1.83.24-.51.58-.9,1.02-1.17.44-.27.95-.41,1.54-.41.37,0,.7.05,1,.15ZM45.26,655.55c-.24.16-.42.4-.55.7-.13.31-.19.68-.19,1.12v.75c0,.44.07.82.2,1.13.13.31.32.55.56.71.24.16.53.24.86.24s.61-.08.86-.24c.25-.16.44-.39.57-.68s.21-.66.21-1.08v-1c0-.39-.07-.73-.22-1.01-.14-.28-.34-.5-.59-.66-.25-.16-.54-.23-.86-.23s-.6.08-.84.24Z"/>
        <path d="M52.34,661.12c-.47-.43-.71-1-.71-1.74s.24-1.26.71-1.68c.47-.42,1.16-.63,2.06-.63h1.9v-.7c0-.39-.12-.68-.35-.87s-.55-.29-.94-.29c-.26,0-.48.04-.66.11-.17.07-.31.17-.41.29-.1.12-.16.27-.2.43h-1.82c.02-.32.1-.62.23-.89.13-.28.32-.52.57-.73s.57-.38.95-.49c.39-.12.84-.18,1.38-.18.58,0,1.11.09,1.59.26s.86.45,1.15.84c.29.39.43.92.43,1.57v5.22h-1.82v-.99h-.09c-.1.19-.25.37-.43.54-.18.17-.41.3-.69.41-.28.1-.61.16-.99.16-.76,0-1.37-.21-1.85-.64ZM55.56,660.17c.22-.11.4-.27.53-.46s.2-.42.2-.67v-.81h-1.49c-.43,0-.75.1-.95.29-.21.19-.31.44-.31.74,0,.37.13.64.39.81s.55.26.88.26c.27,0,.52-.06.74-.17Z"/>
        <path d="M60.97,652.01h1.88v1.93h1.72v1.48h-1.72v3.77c0,.39.09.65.26.79.17.14.46.22.87.22.12,0,.25,0,.37-.01.13,0,.22-.01.29-.02v1.43c-.07.02-.23.03-.46.05s-.46.03-.68.03c-.64,0-1.15-.08-1.53-.23-.38-.15-.64-.4-.81-.73-.16-.33-.24-.76-.24-1.29v-4.02h-1.18v-1.48h1.22v-1.93Z"/>
        <path d="M67.76,661.37c-.53-.28-.94-.68-1.23-1.21s-.44-1.18-.44-1.94v-.92c0-.77.15-1.42.46-1.94.3-.53.72-.93,1.24-1.21s1.11-.41,1.75-.41,1.27.14,1.78.43c.51.29.92.7,1.21,1.23.29.53.44,1.17.44,1.9v.89h-4.99v.37c0,.51.15.93.45,1.25s.7.49,1.2.49c.26,0,.5-.04.7-.11.21-.08.37-.18.5-.31s.21-.28.23-.44h1.83c-.02.24-.1.5-.23.77-.14.27-.34.53-.6.77s-.59.43-.99.59-.88.23-1.44.23c-.72,0-1.34-.14-1.88-.41ZM71.1,657.01v-.08c0-.35-.06-.66-.19-.92-.13-.26-.31-.46-.54-.61s-.5-.22-.82-.22-.59.07-.82.22-.42.35-.55.61c-.13.26-.2.57-.2.92v.08h3.12Z"/>
      </g>
      <g>
        <path d="M30.59,700.14c-.05-.23-.13-.44-.24-.62-.11-.18-.25-.34-.42-.48-.17-.13-.37-.24-.59-.31-.23-.07-.48-.11-.75-.11-.71,0-1.27.25-1.66.75-.39.5-.59,1.21-.59,2.12v1.24c0,.59.08,1.1.25,1.54.16.44.42.78.76,1.03.34.25.77.37,1.3.37.46,0,.84-.08,1.14-.25.3-.16.53-.38.68-.66s.23-.58.23-.91v-.64h-2.06v-1.47h3.94v1.99c0,.48-.08.94-.24,1.37-.16.43-.41.81-.73,1.15s-.74.59-1.23.78c-.5.19-1.08.28-1.75.28-.72,0-1.34-.11-1.88-.33-.53-.22-.98-.54-1.34-.94s-.62-.89-.8-1.45-.26-1.18-.26-1.86v-1.27c0-.9.17-1.69.5-2.37.33-.68.82-1.21,1.46-1.58.64-.38,1.41-.57,2.31-.57.6,0,1.13.08,1.59.25.47.17.87.4,1.2.69s.59.63.78,1.01c.19.38.31.79.35,1.23h-1.94Z"/>
        <path d="M34.63,696.62h1.93v10.53h-1.93v-10.53Z"/>
        <path d="M43.97,699.66c.53.29.95.7,1.24,1.23.29.54.44,1.17.44,1.9v.87c0,.77-.15,1.42-.44,1.96-.3.54-.71.95-1.24,1.23s-1.15.42-1.86.42-1.34-.14-1.88-.42c-.54-.28-.95-.69-1.25-1.23-.3-.54-.44-1.19-.44-1.96v-.86c0-.72.15-1.35.45-1.89.3-.53.71-.95,1.25-1.25.54-.3,1.16-.45,1.87-.45s1.33.14,1.86.43ZM41.21,701.01c-.24.19-.42.45-.54.77-.12.32-.18.68-.18,1.07v.81c0,.39.06.75.17,1.07.11.32.29.58.53.77.24.19.54.29.92.29s.67-.09.91-.29c.23-.19.41-.45.52-.77s.17-.68.17-1.07v-.81c0-.4-.06-.75-.18-1.07-.12-.32-.29-.57-.53-.77-.24-.19-.53-.29-.89-.29s-.66.1-.9.29Z"/>
        <path d="M50.86,707.09c-.3-.11-.56-.25-.77-.45-.21-.19-.38-.42-.48-.68h-.1v1.19h-1.9v-10.53h1.93v3.98h.1c.06-.21.16-.39.3-.55.14-.16.3-.3.5-.42.2-.12.42-.2.66-.27s.51-.09.78-.09c.6,0,1.12.14,1.55.41.43.28.76.67,1,1.19.23.52.35,1.13.35,1.86v1.05c0,.72-.12,1.33-.35,1.85s-.57.92-1.01,1.19c-.44.28-.96.42-1.56.42-.36,0-.69-.05-.99-.16ZM52.07,705.46c.24-.16.42-.4.54-.72.12-.32.18-.69.18-1.14v-.67c0-.45-.06-.83-.19-1.15-.12-.32-.31-.56-.55-.73-.24-.17-.53-.25-.88-.25s-.63.08-.88.25c-.25.16-.44.4-.57.7-.13.3-.2.66-.2,1.07v.97c0,.38.07.71.21,1,.14.29.34.52.59.68.25.16.54.24.87.24s.62-.08.86-.25Z"/>
        <path d="M57.04,706.62c-.47-.43-.71-1-.71-1.74s.24-1.26.71-1.68c.47-.42,1.16-.63,2.06-.63h1.9v-.7c0-.39-.12-.68-.35-.87s-.55-.29-.94-.29c-.26,0-.48.04-.66.11-.17.07-.31.17-.41.29-.1.12-.16.27-.2.43h-1.82c.02-.32.1-.62.23-.89.13-.28.32-.52.57-.73s.57-.38.95-.49c.39-.12.84-.18,1.38-.18.58,0,1.11.09,1.59.26s.86.45,1.15.84c.29.39.43.92.43,1.57v5.22h-1.82v-.99h-.09c-.1.19-.25.37-.43.54-.18.17-.41.3-.69.41-.28.1-.61.16-.99.16-.76,0-1.37-.21-1.85-.64ZM60.26,705.67c.22-.11.4-.27.53-.46s.2-.42.2-.67v-.81h-1.49c-.43,0-.75.1-.95.29-.21.19-.31.44-.31.74,0,.37.13.64.39.81s.55.26.88.26c.27,0,.52-.06.74-.17Z"/>
        <path d="M65.2,696.62h1.93v10.53h-1.93v-10.53Z"/>
        <path d="M29.71,714.66c.53.29.95.7,1.24,1.23.29.54.44,1.17.44,1.9v.87c0,.77-.15,1.42-.44,1.96-.3.54-.71.95-1.24,1.23s-1.15.42-1.86.42-1.34-.14-1.88-.42c-.54-.28-.95-.69-1.25-1.23-.3-.54-.44-1.19-.44-1.96v-.86c0-.72.15-1.35.45-1.89.3-.53.71-.95,1.25-1.25.54-.3,1.16-.45,1.87-.45s1.33.14,1.86.43ZM26.95,716.01c-.24.19-.42.45-.54.77-.12.32-.18.68-.18,1.07v.81c0,.39.06.75.17,1.07.11.32.29.58.53.77.24.19.54.29.92.29s.67-.09.91-.29c.23-.19.41-.45.52-.77s.17-.68.17-1.07v-.81c0-.4-.06-.75-.18-1.07-.12-.32-.29-.57-.53-.77-.24-.19-.53-.29-.89-.29s-.66.1-.9.29Z"/>
        <path d="M36.6,722.09c-.29-.1-.54-.25-.75-.44-.21-.19-.37-.42-.49-.7h-.1v3.76h-1.93v-10.36h1.9v1.24h.1c.08-.21.19-.4.33-.56.14-.16.31-.3.51-.42.2-.11.42-.2.66-.26.24-.06.5-.09.77-.09.61,0,1.12.14,1.56.41.43.28.76.67.99,1.19.23.52.34,1.13.34,1.86v1.05c0,.72-.12,1.33-.35,1.85-.23.52-.57.92-1,1.19-.44.28-.96.42-1.57.42-.35,0-.67-.05-.96-.15ZM37.78,720.46c.24-.17.42-.41.55-.72.13-.31.19-.69.19-1.14v-.67c0-.45-.06-.83-.19-1.15-.13-.31-.31-.55-.55-.72-.24-.17-.54-.25-.88-.25s-.62.08-.86.24-.43.39-.56.69-.2.65-.2,1.06v1.01c0,.38.07.71.21,1s.33.51.58.67.54.23.86.23.63-.08.87-.25Z"/>
        <path d="M42.97,712.51h1.88v1.93h1.72v1.48h-1.72v3.77c0,.39.09.65.26.79.17.14.46.22.87.22.12,0,.25,0,.37-.01.13,0,.22-.01.29-.02v1.43c-.07.02-.23.03-.46.05s-.46.03-.68.03c-.64,0-1.15-.08-1.53-.23-.38-.15-.64-.4-.81-.73-.16-.33-.24-.76-.24-1.29v-4.02h-1.18v-1.48h1.22v-1.93Z"/>
        <path d="M48.68,711.3c.22-.2.52-.3.87-.3s.65.1.88.3c.22.2.34.46.34.78s-.11.57-.34.77c-.22.2-.52.3-.88.3s-.65-.1-.87-.3c-.22-.2-.34-.45-.34-.77s.11-.58.34-.78ZM48.6,714.37h1.93v7.77h-1.93v-7.77Z"/>
        <path d="M58.04,714.66c.53.29.95.7,1.24,1.23.29.54.44,1.17.44,1.9v.87c0,.77-.15,1.42-.44,1.96-.3.54-.71.95-1.24,1.23s-1.15.42-1.86.42-1.34-.14-1.88-.42c-.54-.28-.95-.69-1.25-1.23-.3-.54-.44-1.19-.44-1.96v-.86c0-.72.15-1.35.45-1.89.3-.53.71-.95,1.25-1.25.54-.3,1.16-.45,1.87-.45s1.33.14,1.86.43ZM55.28,716.01c-.24.19-.42.45-.54.77-.12.32-.18.68-.18,1.07v.81c0,.39.06.75.17,1.07.11.32.29.58.53.77.24.19.54.29.92.29s.67-.09.91-.29c.23-.19.41-.45.52-.77s.17-.68.17-1.07v-.81c0-.4-.06-.75-.18-1.07-.12-.32-.29-.57-.53-.77-.24-.19-.53-.29-.89-.29s-.66.1-.9.29Z"/>
        <path d="M61.66,714.37h1.88v1.37h.1c.06-.21.18-.42.35-.65.17-.23.41-.43.73-.59s.73-.25,1.24-.25c.78,0,1.41.22,1.88.67.47.45.71,1.12.71,2.02v5.21h-1.93v-4.67c0-.38-.06-.7-.19-.93-.12-.23-.29-.41-.5-.52-.21-.11-.45-.17-.71-.17-.35,0-.64.08-.89.25s-.43.4-.56.69c-.13.3-.19.64-.19,1.03v4.31h-1.93v-7.77Z"/>
        <path d="M70.95,715.26c.29-.36.67-.62,1.15-.78.48-.16.99-.25,1.53-.25.58,0,1.09.09,1.54.27.45.18.8.44,1.05.77s.38.75.38,1.23h-1.71c-.01-.16-.07-.31-.17-.45-.1-.14-.24-.26-.43-.35-.19-.09-.42-.14-.7-.14-.39,0-.69.08-.91.25-.22.17-.33.4-.33.68,0,.2.06.36.19.48s.29.22.49.29c.2.07.42.13.66.17.23.04.46.08.67.11.48.08.9.2,1.28.36.37.16.67.39.88.68.21.29.32.68.32,1.15,0,.53-.13.99-.4,1.36-.26.38-.64.67-1.14.87-.5.2-1.09.3-1.79.3s-1.22-.09-1.7-.28c-.47-.19-.83-.45-1.08-.79s-.37-.74-.37-1.21h1.87c.03.19.1.36.2.5.1.14.25.25.45.33.2.08.44.12.73.12.32,0,.58-.04.78-.13s.35-.21.44-.35c.09-.15.14-.31.14-.49,0-.25-.09-.44-.27-.56-.18-.13-.42-.22-.71-.29-.29-.07-.61-.13-.94-.19-.46-.09-.89-.22-1.27-.38-.38-.16-.69-.39-.92-.68-.23-.3-.34-.7-.34-1.2,0-.58.15-1.05.44-1.41Z"/>
      </g>
    </g>
  </g>
</svg>