<?xml version="1.0" encoding="utf-8"?>
<!-- Generator: Adobe Illustrator 27.9.0, SVG Export Plug-In . SVG Version: 6.00 Build 0)  -->
<svg version="1.1" xmlns="http://www.w3.org/2000/svg" xmlns:xlink="http://www.w3.org/1999/xlink" x="0px" y="0px" width="110px"
	 height="801px" viewBox="0 0 110 801" enable-background="new 0 0 110 801" xml:space="preserve">
<g id="artwork">
	<polyline fill="none" stroke="#1A1A18" stroke-miterlimit="10" points="0,183.5 9.5,183.5 9.5,322.5 0,322.5 	"/>
	<line fill="none" stroke="#1A1A18" stroke-miterlimit="10" x1="9" y1="252.5" x2="19" y2="252.5"/>
	<line fill="none" stroke="#1A1A18" stroke-miterlimit="10" x1="0" y1="160.5" x2="19" y2="160.5"/>
	<polyline fill="none" stroke="#1A1A18" stroke-miterlimit="10" points="0,52.5 9.5,52.5 9.5,126.5 0,126.5 	"/>
	<line fill="none" stroke="#1A1A18" stroke-miterlimit="10" x1="9" y1="89.5" x2="19" y2="89.5"/>
	<polyline fill="none" stroke="#1A1A18" stroke-miterlimit="10" points="0,345.5 9.5,345.5 9.5,450.5 0,450.5 	"/>
	<line fill="none" stroke="#1A1A18" stroke-miterlimit="10" x1="9" y1="397.5" x2="19" y2="397.5"/>
	<polyline fill="none" stroke="#1A1A18" stroke-miterlimit="10" points="0,473.5 9.5,473.5 9.5,670.5 0,670.5 	"/>
	<line fill="none" stroke="#1A1A18" stroke-miterlimit="10" x1="9" y1="571.5" x2="19" y2="571.5"/>
	<polyline fill="none" stroke="#1A1A18" stroke-miterlimit="10" points="0,688.5 9.5,688.5 9.5,740.5 0,740.5 	"/>
	<line fill="none" stroke="#1A1A18" stroke-miterlimit="10" x1="9" y1="714.5" x2="19" y2="714.5"/>
	<polyline fill="none" stroke="#1A1A18" stroke-miterlimit="10" points="0,762.5 9.5,762.5 9.5,785.5 0,785.5 	"/>
	<line fill="none" stroke="#1A1A18" stroke-miterlimit="10" x1="9" y1="773.5" x2="19" y2="773.5"/>
</g>
<g id="legend">
	<g>
		<path d="M26.04,83.92c0.03,0.19,0.1,0.37,0.21,0.53c0.11,0.16,0.25,0.31,0.42,0.43c0.18,0.12,0.38,0.22,0.62,0.29
			s0.51,0.1,0.8,0.1c0.41,0,0.76-0.06,1.04-0.18c0.28-0.12,0.49-0.28,0.63-0.49c0.14-0.21,0.21-0.45,0.21-0.72
			c0-0.35-0.13-0.62-0.38-0.82c-0.25-0.2-0.64-0.36-1.16-0.48l-1.55-0.36c-0.52-0.12-0.97-0.3-1.35-0.54s-0.67-0.54-0.88-0.92
			c-0.21-0.37-0.31-0.81-0.31-1.31c0-0.61,0.16-1.14,0.48-1.6s0.76-0.81,1.32-1.05s1.21-0.37,1.94-0.37c0.76,0,1.41,0.13,1.95,0.38
			c0.54,0.25,0.96,0.59,1.25,1.02c0.29,0.43,0.46,0.9,0.49,1.42h-1.88c-0.04-0.24-0.14-0.45-0.3-0.64
			c-0.15-0.19-0.36-0.34-0.62-0.45s-0.57-0.17-0.92-0.17c-0.54,0-0.97,0.13-1.28,0.38c-0.31,0.25-0.47,0.57-0.47,0.96
			c0,0.3,0.12,0.55,0.36,0.75s0.58,0.34,1.01,0.44l1.55,0.36c0.54,0.12,1.01,0.3,1.41,0.52c0.4,0.23,0.71,0.53,0.94,0.9
			c0.22,0.37,0.34,0.84,0.34,1.4c0,0.62-0.16,1.17-0.47,1.64c-0.31,0.47-0.76,0.84-1.35,1.1s-1.3,0.4-2.15,0.4
			c-0.63,0-1.19-0.08-1.66-0.23c-0.47-0.15-0.87-0.36-1.19-0.63c-0.32-0.27-0.56-0.58-0.73-0.93s-0.26-0.73-0.28-1.12H26.04z"/>
		<path d="M38.93,79.16c0.53,0.29,0.95,0.7,1.24,1.23c0.29,0.54,0.44,1.17,0.44,1.9v0.87c0,0.77-0.15,1.42-0.44,1.96
			c-0.3,0.54-0.71,0.95-1.24,1.23s-1.15,0.42-1.86,0.42c-0.72,0-1.34-0.14-1.88-0.42c-0.54-0.28-0.95-0.69-1.25-1.23
			c-0.3-0.54-0.44-1.19-0.44-1.96v-0.86c0-0.72,0.15-1.35,0.45-1.89c0.3-0.53,0.71-0.95,1.25-1.25c0.54-0.3,1.16-0.45,1.87-0.45
			C37.78,78.73,38.4,78.88,38.93,79.16z M36.17,80.51c-0.24,0.19-0.42,0.45-0.54,0.77c-0.12,0.32-0.18,0.68-0.18,1.07v0.81
			c0,0.39,0.06,0.75,0.17,1.07c0.11,0.32,0.29,0.58,0.53,0.77c0.24,0.19,0.54,0.29,0.92,0.29s0.67-0.09,0.91-0.29
			c0.23-0.19,0.41-0.45,0.52-0.77s0.17-0.68,0.17-1.07v-0.81c0-0.4-0.06-0.75-0.18-1.07c-0.12-0.32-0.29-0.57-0.53-0.77
			c-0.24-0.19-0.53-0.29-0.89-0.29C36.71,80.23,36.41,80.32,36.17,80.51z"/>
		<path d="M49.37,86.64h-1.88v-1.3h-0.1c-0.07,0.21-0.2,0.42-0.39,0.63c-0.19,0.22-0.43,0.4-0.75,0.55
			c-0.31,0.15-0.7,0.23-1.16,0.23c-0.51,0-0.96-0.09-1.35-0.27c-0.39-0.18-0.7-0.46-0.92-0.85c-0.22-0.39-0.33-0.89-0.33-1.5v-5.27
			h1.93v4.76c0,0.39,0.07,0.7,0.2,0.93c0.13,0.22,0.31,0.38,0.52,0.46c0.21,0.08,0.44,0.13,0.68,0.13c0.3,0,0.57-0.07,0.81-0.21
			s0.44-0.33,0.58-0.57c0.14-0.24,0.22-0.52,0.22-0.83v-4.67h1.93V86.64z"/>
		<path d="M51.75,78.87h1.93v1.22h0.1c0.05-0.18,0.16-0.37,0.31-0.58s0.36-0.38,0.63-0.53c0.27-0.15,0.61-0.22,1.02-0.22
			c0.13,0,0.24,0.01,0.34,0.02s0.19,0.02,0.26,0.04v1.67c-0.07-0.02-0.18-0.04-0.32-0.05c-0.14-0.01-0.29-0.02-0.44-0.02
			c-0.42,0-0.77,0.08-1.04,0.23s-0.48,0.36-0.62,0.63s-0.2,0.58-0.2,0.93v4.45h-1.97V78.87z"/>
		<path d="M57.46,82.24c0-0.71,0.14-1.33,0.42-1.86c0.28-0.52,0.68-0.93,1.2-1.22c0.52-0.29,1.13-0.43,1.83-0.43
			c0.68,0,1.25,0.12,1.73,0.37c0.47,0.25,0.84,0.57,1.09,0.98c0.25,0.41,0.38,0.86,0.39,1.36h-1.78c-0.02-0.18-0.08-0.35-0.18-0.53
			s-0.24-0.33-0.44-0.45c-0.19-0.12-0.45-0.18-0.77-0.18c-0.5,0-0.89,0.18-1.16,0.54c-0.27,0.36-0.41,0.84-0.41,1.45v0.94
			c0,0.63,0.14,1.13,0.42,1.49s0.66,0.54,1.16,0.54c0.31,0,0.56-0.05,0.76-0.14s0.34-0.22,0.44-0.39c0.1-0.17,0.17-0.36,0.2-0.57
			h1.78c-0.01,0.49-0.14,0.94-0.38,1.34s-0.6,0.72-1.08,0.95c-0.48,0.23-1.07,0.35-1.78,0.35c-0.72,0-1.33-0.14-1.85-0.44
			c-0.52-0.29-0.91-0.7-1.19-1.23c-0.28-0.53-0.42-1.16-0.42-1.9V82.24z"/>
		<path d="M67.31,86.37c-0.53-0.28-0.94-0.68-1.23-1.21s-0.44-1.18-0.44-1.94v-0.92c0-0.77,0.15-1.42,0.46-1.94
			c0.3-0.53,0.72-0.93,1.24-1.21s1.11-0.41,1.75-0.41c0.67,0,1.27,0.14,1.78,0.43c0.51,0.29,0.92,0.7,1.21,1.23
			c0.29,0.53,0.44,1.17,0.44,1.9v0.89h-4.99v0.37c0,0.51,0.15,0.93,0.45,1.25s0.7,0.49,1.2,0.49c0.26,0,0.5-0.04,0.7-0.11
			c0.21-0.08,0.37-0.18,0.5-0.31s0.21-0.28,0.23-0.44h1.83c-0.02,0.24-0.1,0.5-0.23,0.77c-0.14,0.27-0.34,0.53-0.6,0.77
			s-0.59,0.43-0.99,0.59s-0.88,0.23-1.44,0.23C68.47,86.78,67.84,86.64,67.31,86.37z M70.65,82.01c0-0.01,0-0.03,0-0.04
			c0-0.01,0-0.03,0-0.04c0-0.35-0.06-0.66-0.19-0.92c-0.13-0.26-0.31-0.46-0.54-0.61s-0.5-0.22-0.82-0.22s-0.59,0.07-0.82,0.22
			s-0.42,0.35-0.55,0.61c-0.13,0.26-0.2,0.57-0.2,0.92c0,0.01,0,0.03,0,0.04c0,0.01,0,0.03,0,0.04H70.65z"/>
		<path d="M25.32,95.42h-1.27v-1.48h1.27v-0.77c0-0.77,0.21-1.33,0.62-1.68c0.41-0.35,1.09-0.52,2.05-0.52c0.2,0,0.4,0.01,0.61,0.02
			c0.21,0.01,0.37,0.03,0.48,0.04v1.38c-0.07-0.01-0.18-0.02-0.33-0.03c-0.15-0.01-0.28-0.01-0.39-0.01c-0.41,0-0.7,0.07-0.88,0.21
			c-0.18,0.14-0.27,0.39-0.27,0.75v0.61h1.74v1.48h-1.71v6.22h-1.92V95.42z"/>
		<path d="M35.57,94.16c0.53,0.29,0.95,0.7,1.24,1.23c0.29,0.54,0.44,1.17,0.44,1.9v0.87c0,0.77-0.15,1.42-0.44,1.96
			c-0.3,0.54-0.71,0.95-1.24,1.23s-1.15,0.42-1.86,0.42c-0.72,0-1.34-0.14-1.88-0.42c-0.54-0.28-0.95-0.69-1.25-1.23
			c-0.3-0.54-0.44-1.19-0.44-1.96v-0.86c0-0.72,0.15-1.35,0.45-1.89c0.3-0.53,0.71-0.95,1.25-1.25c0.54-0.3,1.16-0.45,1.87-0.45
			C34.42,93.73,35.04,93.88,35.57,94.16z M32.81,95.51c-0.24,0.19-0.42,0.45-0.54,0.77c-0.12,0.32-0.18,0.68-0.18,1.07v0.81
			c0,0.39,0.06,0.75,0.17,1.07c0.11,0.32,0.29,0.58,0.53,0.77c0.24,0.19,0.54,0.29,0.92,0.29s0.67-0.09,0.91-0.29
			c0.23-0.19,0.41-0.45,0.52-0.77s0.17-0.68,0.17-1.07v-0.81c0-0.4-0.06-0.75-0.18-1.07c-0.12-0.32-0.29-0.57-0.53-0.77
			c-0.24-0.19-0.53-0.29-0.89-0.29C33.35,95.23,33.05,95.32,32.81,95.51z"/>
		<path d="M39.25,91.12h1.93v10.53h-1.93V91.12z"/>
		<path d="M47.09,93.92c0.3,0.1,0.55,0.25,0.76,0.44c0.21,0.19,0.37,0.42,0.47,0.68h0.09v-3.93h1.93v10.53h-1.9v-1.25h-0.1
			c-0.06,0.2-0.16,0.38-0.3,0.55c-0.14,0.16-0.31,0.3-0.51,0.42s-0.42,0.21-0.67,0.27c-0.25,0.07-0.52,0.1-0.8,0.1
			c-0.59,0-1.1-0.14-1.53-0.41c-0.43-0.27-0.77-0.66-1.01-1.17c-0.24-0.51-0.36-1.12-0.36-1.83v-1.16c0-0.71,0.12-1.32,0.36-1.83
			c0.24-0.51,0.58-0.9,1.02-1.17c0.44-0.27,0.95-0.41,1.54-0.41C46.46,93.77,46.8,93.82,47.09,93.92z M45.9,95.55
			c-0.24,0.16-0.42,0.4-0.55,0.7c-0.13,0.31-0.19,0.68-0.19,1.12v0.75c0,0.44,0.07,0.82,0.2,1.13c0.13,0.31,0.32,0.55,0.56,0.71
			c0.24,0.16,0.53,0.24,0.86,0.24c0.33,0,0.61-0.08,0.86-0.24c0.25-0.16,0.44-0.39,0.57-0.68s0.21-0.66,0.21-1.08v-1
			c0-0.39-0.07-0.73-0.22-1.01c-0.14-0.28-0.34-0.5-0.59-0.66c-0.25-0.16-0.54-0.23-0.86-0.23C46.42,95.31,46.14,95.39,45.9,95.55z"
			/>
		<path d="M53.97,101.37c-0.53-0.28-0.94-0.68-1.23-1.21s-0.44-1.18-0.44-1.94v-0.92c0-0.77,0.15-1.42,0.46-1.94
			c0.3-0.53,0.72-0.93,1.24-1.21s1.11-0.41,1.75-0.41c0.67,0,1.27,0.14,1.78,0.43c0.51,0.29,0.92,0.7,1.21,1.23
			c0.29,0.53,0.44,1.17,0.44,1.9v0.89h-4.99v0.37c0,0.51,0.15,0.93,0.45,1.25s0.7,0.49,1.2,0.49c0.26,0,0.5-0.04,0.7-0.11
			c0.21-0.08,0.37-0.18,0.5-0.31s0.21-0.28,0.23-0.44h1.83c-0.02,0.24-0.1,0.5-0.23,0.77c-0.14,0.27-0.34,0.53-0.6,0.77
			s-0.59,0.43-0.99,0.59s-0.88,0.23-1.44,0.23C55.13,101.78,54.5,101.64,53.97,101.37z M57.31,97.01c0-0.01,0-0.03,0-0.04
			c0-0.01,0-0.03,0-0.04c0-0.35-0.06-0.66-0.19-0.92c-0.13-0.26-0.31-0.46-0.54-0.61s-0.5-0.22-0.82-0.22s-0.59,0.07-0.82,0.22
			s-0.42,0.35-0.55,0.61c-0.13,0.26-0.2,0.57-0.2,0.92c0,0.01,0,0.03,0,0.04c0,0.01,0,0.03,0,0.04H57.31z"/>
		<path d="M61.16,93.87h1.93v1.22h0.1c0.05-0.18,0.16-0.37,0.31-0.58s0.36-0.38,0.63-0.53c0.27-0.15,0.61-0.22,1.02-0.22
			c0.13,0,0.24,0.01,0.34,0.02s0.19,0.02,0.26,0.04v1.67c-0.07-0.02-0.18-0.04-0.32-0.05c-0.14-0.01-0.29-0.02-0.44-0.02
			c-0.42,0-0.77,0.08-1.04,0.23s-0.48,0.36-0.62,0.63s-0.2,0.58-0.2,0.93v4.45h-1.97V93.87z"/>
	</g>
	<g>
		<path d="M30.57,239.59c0.5,0.3,0.88,0.7,1.15,1.2c0.26,0.5,0.4,1.07,0.4,1.69s-0.13,1.19-0.4,1.69c-0.27,0.5-0.65,0.9-1.16,1.19
			c-0.5,0.29-1.12,0.44-1.83,0.44h-2.01v3.35h-1.98v-10h4C29.46,239.14,30.07,239.29,30.57,239.59z M29.64,241.17
			c-0.31-0.3-0.73-0.45-1.28-0.45h-1.65v3.52h1.65c0.37,0,0.68-0.07,0.94-0.21c0.26-0.14,0.46-0.34,0.6-0.6
			c0.14-0.26,0.21-0.58,0.21-0.95C30.1,241.91,29.95,241.48,29.64,241.17z"/>
		<path d="M33.87,241.37h1.93v1.22h0.1c0.05-0.18,0.16-0.37,0.31-0.58s0.36-0.38,0.63-0.53c0.27-0.15,0.61-0.22,1.02-0.22
			c0.13,0,0.24,0.01,0.34,0.02s0.19,0.02,0.26,0.04v1.67c-0.07-0.02-0.18-0.04-0.32-0.05c-0.14-0.01-0.29-0.02-0.44-0.02
			c-0.42,0-0.77,0.08-1.04,0.23s-0.48,0.36-0.62,0.63s-0.2,0.58-0.2,0.93v4.45h-1.97V241.37z"/>
		<path d="M41.25,248.87c-0.53-0.28-0.94-0.68-1.23-1.21s-0.44-1.18-0.44-1.94v-0.92c0-0.77,0.15-1.42,0.46-1.94
			c0.3-0.53,0.72-0.93,1.24-1.21s1.11-0.41,1.75-0.41c0.67,0,1.27,0.14,1.78,0.43c0.51,0.29,0.92,0.7,1.21,1.23
			c0.29,0.53,0.44,1.17,0.44,1.9v0.89h-4.99v0.37c0,0.51,0.15,0.93,0.45,1.25s0.7,0.49,1.2,0.49c0.26,0,0.5-0.04,0.7-0.11
			c0.21-0.08,0.37-0.18,0.5-0.31s0.21-0.28,0.23-0.44h1.83c-0.02,0.24-0.1,0.5-0.23,0.77c-0.14,0.27-0.34,0.53-0.6,0.77
			s-0.59,0.43-0.99,0.59s-0.88,0.23-1.44,0.23C42.41,249.28,41.78,249.14,41.25,248.87z M44.59,244.51c0-0.01,0-0.03,0-0.04
			c0-0.01,0-0.03,0-0.04c0-0.35-0.06-0.66-0.19-0.92c-0.13-0.26-0.31-0.46-0.54-0.61s-0.5-0.22-0.82-0.22s-0.59,0.07-0.82,0.22
			s-0.42,0.35-0.55,0.61c-0.13,0.26-0.2,0.57-0.2,0.92c0,0.01,0,0.03,0,0.04c0,0.01,0,0.03,0,0.04H44.59z"/>
		<path d="M48.5,242.26c0.29-0.36,0.67-0.62,1.15-0.78c0.48-0.16,0.99-0.25,1.53-0.25c0.58,0,1.09,0.09,1.54,0.27
			c0.45,0.18,0.8,0.44,1.05,0.77s0.38,0.75,0.38,1.23h-1.71c-0.01-0.16-0.07-0.31-0.17-0.45c-0.1-0.14-0.24-0.26-0.43-0.35
			c-0.19-0.09-0.42-0.14-0.7-0.14c-0.39,0-0.69,0.08-0.91,0.25c-0.22,0.17-0.33,0.4-0.33,0.68c0,0.2,0.06,0.36,0.19,0.48
			s0.29,0.22,0.49,0.29c0.2,0.07,0.42,0.13,0.66,0.17c0.23,0.04,0.46,0.08,0.67,0.11c0.48,0.08,0.9,0.2,1.28,0.36
			c0.37,0.16,0.67,0.39,0.88,0.68c0.21,0.29,0.32,0.68,0.32,1.15c0,0.53-0.13,0.99-0.4,1.36c-0.26,0.38-0.64,0.67-1.14,0.87
			c-0.5,0.2-1.09,0.3-1.79,0.3c-0.66,0-1.22-0.09-1.7-0.28c-0.47-0.19-0.83-0.45-1.08-0.79s-0.37-0.74-0.37-1.21h1.87
			c0.03,0.19,0.1,0.36,0.2,0.5c0.1,0.14,0.25,0.25,0.45,0.33c0.2,0.08,0.44,0.12,0.73,0.12c0.32,0,0.58-0.04,0.78-0.13
			s0.35-0.21,0.44-0.35c0.09-0.15,0.14-0.31,0.14-0.49c0-0.25-0.09-0.44-0.27-0.56c-0.18-0.13-0.42-0.22-0.71-0.29
			c-0.29-0.07-0.61-0.13-0.94-0.19c-0.46-0.09-0.89-0.22-1.27-0.38c-0.38-0.16-0.69-0.39-0.92-0.68c-0.23-0.3-0.34-0.7-0.34-1.2
			C48.07,243.08,48.21,242.61,48.5,242.26z"/>
		<path d="M57.59,248.87c-0.53-0.28-0.94-0.68-1.23-1.21s-0.44-1.18-0.44-1.94v-0.92c0-0.77,0.15-1.42,0.46-1.94
			c0.3-0.53,0.72-0.93,1.24-1.21s1.11-0.41,1.75-0.41c0.67,0,1.27,0.14,1.78,0.43c0.51,0.29,0.92,0.7,1.21,1.23
			c0.29,0.53,0.44,1.17,0.44,1.9v0.89h-4.99v0.37c0,0.51,0.15,0.93,0.45,1.25s0.7,0.49,1.2,0.49c0.26,0,0.5-0.04,0.7-0.11
			c0.21-0.08,0.37-0.18,0.5-0.31s0.21-0.28,0.23-0.44h1.83c-0.02,0.24-0.1,0.5-0.23,0.77c-0.14,0.27-0.34,0.53-0.6,0.77
			s-0.59,0.43-0.99,0.59s-0.88,0.23-1.44,0.23C58.75,249.28,58.12,249.14,57.59,248.87z M60.93,244.51c0-0.01,0-0.03,0-0.04
			c0-0.01,0-0.03,0-0.04c0-0.35-0.06-0.66-0.19-0.92c-0.13-0.26-0.31-0.46-0.54-0.61s-0.5-0.22-0.82-0.22s-0.59,0.07-0.82,0.22
			s-0.42,0.35-0.55,0.61c-0.13,0.26-0.2,0.57-0.2,0.92c0,0.01,0,0.03,0,0.04c0,0.01,0,0.03,0,0.04H60.93z"/>
		<path d="M65.29,239.51h1.88v1.93h1.72v1.48h-1.72v3.77c0,0.39,0.09,0.65,0.26,0.79c0.17,0.14,0.46,0.22,0.87,0.22
			c0.12,0,0.25,0,0.37-0.01c0.13-0.01,0.22-0.01,0.29-0.02v1.43c-0.07,0.02-0.23,0.03-0.46,0.05s-0.46,0.03-0.68,0.03
			c-0.64,0-1.15-0.08-1.53-0.23c-0.38-0.15-0.64-0.4-0.81-0.73c-0.16-0.33-0.24-0.76-0.24-1.29v-4.02h-1.18v-1.48h1.22V239.51z"/>
		<path d="M29.71,256.66c0.53,0.29,0.95,0.7,1.24,1.23c0.29,0.54,0.44,1.17,0.44,1.9v0.87c0,0.77-0.15,1.42-0.44,1.96
			c-0.3,0.54-0.71,0.95-1.24,1.23s-1.15,0.42-1.86,0.42c-0.72,0-1.34-0.14-1.88-0.42c-0.54-0.28-0.95-0.69-1.25-1.23
			c-0.3-0.54-0.44-1.19-0.44-1.96v-0.86c0-0.72,0.15-1.35,0.45-1.89c0.3-0.53,0.71-0.95,1.25-1.25c0.54-0.3,1.16-0.45,1.87-0.45
			C28.55,256.23,29.17,256.38,29.71,256.66z M26.95,258.01c-0.24,0.19-0.42,0.45-0.54,0.77c-0.12,0.32-0.18,0.68-0.18,1.07v0.81
			c0,0.39,0.06,0.75,0.17,1.07c0.11,0.32,0.29,0.58,0.53,0.77c0.24,0.19,0.54,0.29,0.92,0.29s0.67-0.09,0.91-0.29
			c0.23-0.19,0.41-0.45,0.52-0.77s0.17-0.68,0.17-1.07v-0.81c0-0.4-0.06-0.75-0.18-1.07c-0.12-0.32-0.29-0.57-0.53-0.77
			c-0.24-0.19-0.53-0.29-0.89-0.29C27.48,257.73,27.18,257.82,26.95,258.01z"/>
		<path d="M36.6,264.09c-0.29-0.1-0.54-0.25-0.75-0.44c-0.21-0.19-0.37-0.42-0.49-0.7h-0.1v3.76h-1.93v-10.36h1.9v1.24h0.1
			c0.08-0.21,0.19-0.4,0.33-0.56c0.14-0.16,0.31-0.3,0.51-0.42c0.2-0.11,0.42-0.2,0.66-0.26c0.24-0.06,0.5-0.09,0.77-0.09
			c0.61,0,1.12,0.14,1.56,0.41c0.43,0.28,0.76,0.67,0.99,1.19c0.23,0.52,0.34,1.13,0.34,1.86v1.05c0,0.72-0.12,1.33-0.35,1.85
			c-0.23,0.52-0.57,0.92-1,1.19c-0.44,0.28-0.96,0.42-1.57,0.42C37.21,264.25,36.89,264.19,36.6,264.09z M37.78,262.46
			c0.24-0.17,0.42-0.41,0.55-0.72c0.13-0.31,0.19-0.69,0.19-1.14v-0.67c0-0.45-0.06-0.83-0.19-1.15c-0.13-0.31-0.31-0.55-0.55-0.72
			c-0.24-0.17-0.54-0.25-0.88-0.25c-0.33,0-0.62,0.08-0.86,0.24s-0.43,0.39-0.56,0.69s-0.2,0.65-0.2,1.06v1.01
			c0,0.38,0.07,0.71,0.21,1s0.33,0.51,0.58,0.67s0.54,0.23,0.86,0.23C37.26,262.71,37.54,262.62,37.78,262.46z"/>
		<path d="M42.97,254.51h1.88v1.93h1.72v1.48h-1.72v3.77c0,0.39,0.09,0.65,0.26,0.79c0.17,0.14,0.46,0.22,0.87,0.22
			c0.12,0,0.25,0,0.37-0.01c0.13-0.01,0.22-0.01,0.29-0.02v1.43c-0.07,0.02-0.23,0.03-0.46,0.05s-0.46,0.03-0.68,0.03
			c-0.64,0-1.15-0.08-1.53-0.23c-0.38-0.15-0.64-0.4-0.81-0.73c-0.16-0.33-0.24-0.76-0.24-1.29v-4.02h-1.18v-1.48h1.22V254.51z"/>
		<path d="M48.68,253.3c0.22-0.2,0.52-0.3,0.87-0.3c0.36,0,0.65,0.1,0.88,0.3c0.22,0.2,0.34,0.46,0.34,0.78
			c0,0.31-0.11,0.57-0.34,0.77c-0.22,0.2-0.52,0.3-0.88,0.3c-0.36,0-0.65-0.1-0.87-0.3c-0.22-0.2-0.34-0.45-0.34-0.77
			C48.35,253.76,48.46,253.5,48.68,253.3z M48.6,256.37h1.93v7.77H48.6V256.37z"/>
		<path d="M58.04,256.66c0.53,0.29,0.95,0.7,1.24,1.23c0.29,0.54,0.44,1.17,0.44,1.9v0.87c0,0.77-0.15,1.42-0.44,1.96
			c-0.3,0.54-0.71,0.95-1.24,1.23s-1.15,0.42-1.86,0.42c-0.72,0-1.34-0.14-1.88-0.42c-0.54-0.28-0.95-0.69-1.25-1.23
			c-0.3-0.54-0.44-1.19-0.44-1.96v-0.86c0-0.72,0.15-1.35,0.45-1.89c0.3-0.53,0.71-0.95,1.25-1.25c0.54-0.3,1.16-0.45,1.87-0.45
			C56.88,256.23,57.5,256.38,58.04,256.66z M55.28,258.01c-0.24,0.19-0.42,0.45-0.54,0.77c-0.12,0.32-0.18,0.68-0.18,1.07v0.81
			c0,0.39,0.06,0.75,0.17,1.07c0.11,0.32,0.29,0.58,0.53,0.77c0.24,0.19,0.54,0.29,0.92,0.29s0.67-0.09,0.91-0.29
			c0.23-0.19,0.41-0.45,0.52-0.77s0.17-0.68,0.17-1.07v-0.81c0-0.4-0.06-0.75-0.18-1.07c-0.12-0.32-0.29-0.57-0.53-0.77
			c-0.24-0.19-0.53-0.29-0.89-0.29C55.81,257.73,55.51,257.82,55.28,258.01z"/>
		<path d="M61.66,256.37h1.88v1.37h0.1c0.06-0.21,0.18-0.42,0.35-0.65c0.17-0.23,0.41-0.43,0.73-0.59s0.73-0.25,1.24-0.25
			c0.78,0,1.41,0.22,1.88,0.67c0.47,0.45,0.71,1.12,0.71,2.02v5.21h-1.93v-4.67c0-0.38-0.06-0.7-0.19-0.93
			c-0.12-0.23-0.29-0.41-0.5-0.52c-0.21-0.11-0.45-0.17-0.71-0.17c-0.35,0-0.64,0.08-0.89,0.25s-0.43,0.4-0.56,0.69
			c-0.13,0.3-0.19,0.64-0.19,1.03v4.31h-1.93V256.37z"/>
		<path d="M70.95,257.26c0.29-0.36,0.67-0.62,1.15-0.78c0.48-0.16,0.99-0.25,1.53-0.25c0.58,0,1.09,0.09,1.54,0.27
			c0.45,0.18,0.8,0.44,1.05,0.77s0.38,0.75,0.38,1.23h-1.71c-0.01-0.16-0.07-0.31-0.17-0.45c-0.1-0.14-0.24-0.26-0.43-0.35
			c-0.19-0.09-0.42-0.14-0.7-0.14c-0.39,0-0.69,0.08-0.91,0.25c-0.22,0.17-0.33,0.4-0.33,0.68c0,0.2,0.06,0.36,0.19,0.48
			s0.29,0.22,0.49,0.29c0.2,0.07,0.42,0.13,0.66,0.17c0.23,0.04,0.46,0.08,0.67,0.11c0.48,0.08,0.9,0.2,1.28,0.36
			c0.37,0.16,0.67,0.39,0.88,0.68c0.21,0.29,0.32,0.68,0.32,1.15c0,0.53-0.13,0.99-0.4,1.36c-0.26,0.38-0.64,0.67-1.14,0.87
			c-0.5,0.2-1.09,0.3-1.79,0.3c-0.66,0-1.22-0.09-1.7-0.28c-0.47-0.19-0.83-0.45-1.08-0.79s-0.37-0.74-0.37-1.21h1.87
			c0.03,0.19,0.1,0.36,0.2,0.5c0.1,0.14,0.25,0.25,0.45,0.33c0.2,0.08,0.44,0.12,0.73,0.12c0.32,0,0.58-0.04,0.78-0.13
			s0.35-0.21,0.44-0.35c0.09-0.15,0.14-0.31,0.14-0.49c0-0.25-0.09-0.44-0.27-0.56c-0.18-0.13-0.42-0.22-0.71-0.29
			c-0.29-0.07-0.61-0.13-0.94-0.19c-0.46-0.09-0.89-0.22-1.27-0.38c-0.38-0.16-0.69-0.39-0.92-0.68c-0.23-0.3-0.34-0.7-0.34-1.2
			C70.51,258.08,70.65,257.61,70.95,257.26z"/>
	</g>
	<g>
		<path d="M26.37,165.14l-2.64-10h2.14l1.5,7.26h0.1l1.77-7.26h1.71l1.77,7.26h0.1l1.49-7.26h2.15l-2.64,10h-1.82l-1.85-6.97h-0.08
			l-1.85,6.97H26.37z"/>
		<path d="M42.52,157.66c0.53,0.29,0.95,0.7,1.24,1.23c0.29,0.54,0.44,1.17,0.44,1.9v0.87c0,0.77-0.15,1.42-0.44,1.96
			c-0.3,0.54-0.71,0.95-1.24,1.23s-1.15,0.42-1.86,0.42c-0.72,0-1.34-0.14-1.88-0.42c-0.54-0.28-0.95-0.69-1.25-1.23
			c-0.3-0.54-0.44-1.19-0.44-1.96v-0.86c0-0.72,0.15-1.35,0.45-1.89c0.3-0.53,0.71-0.95,1.25-1.25c0.54-0.3,1.16-0.45,1.87-0.45
			C41.36,157.23,41.98,157.38,42.52,157.66z M39.76,159.01c-0.24,0.19-0.42,0.45-0.54,0.77c-0.12,0.32-0.18,0.68-0.18,1.07v0.81
			c0,0.39,0.06,0.75,0.17,1.07c0.11,0.32,0.29,0.58,0.53,0.77c0.24,0.19,0.54,0.29,0.92,0.29s0.67-0.09,0.91-0.29
			c0.23-0.19,0.41-0.45,0.52-0.77s0.17-0.68,0.17-1.07v-0.81c0-0.4-0.06-0.75-0.18-1.07c-0.12-0.32-0.29-0.57-0.53-0.77
			c-0.24-0.19-0.53-0.29-0.89-0.29C40.29,158.73,39.99,158.82,39.76,159.01z"/>
		<path d="M46.22,157.37h1.93v1.22h0.1c0.05-0.18,0.16-0.37,0.31-0.58s0.36-0.38,0.63-0.53c0.27-0.15,0.61-0.22,1.02-0.22
			c0.13,0,0.24,0.01,0.34,0.02s0.19,0.02,0.26,0.04v1.67c-0.07-0.02-0.18-0.04-0.32-0.05c-0.14-0.01-0.29-0.02-0.44-0.02
			c-0.42,0-0.77,0.08-1.04,0.23s-0.48,0.36-0.62,0.63s-0.2,0.58-0.2,0.93v4.45h-1.97V157.37z"/>
		<path d="M54.32,165.14h-1.93v-10.53h1.93v6h0.09l2.59-3.25h2.18l-2.83,3.36l3.02,4.42h-2.25l-2.24-3.32l-0.56,0.62V165.14z"/>
		<path d="M61.42,158.92h-1.27v-1.48h1.27v-0.77c0-0.77,0.21-1.33,0.62-1.68c0.41-0.35,1.09-0.52,2.05-0.52
			c0.2,0,0.4,0.01,0.61,0.02c0.21,0.01,0.37,0.03,0.48,0.04v1.38c-0.07-0.01-0.18-0.02-0.33-0.03c-0.15-0.01-0.28-0.01-0.39-0.01
			c-0.41,0-0.7,0.07-0.88,0.21c-0.18,0.14-0.27,0.39-0.27,0.75v0.61h1.74v1.48h-1.71v6.22h-1.92V158.92z"/>
		<path d="M66.95,154.62h1.93v10.53h-1.93V154.62z"/>
		<path d="M76.29,157.66c0.53,0.29,0.95,0.7,1.24,1.23c0.29,0.54,0.44,1.17,0.44,1.9v0.87c0,0.77-0.15,1.42-0.44,1.96
			c-0.3,0.54-0.71,0.95-1.24,1.23s-1.15,0.42-1.86,0.42c-0.72,0-1.34-0.14-1.88-0.42c-0.54-0.28-0.95-0.69-1.25-1.23
			c-0.3-0.54-0.44-1.19-0.44-1.96v-0.86c0-0.72,0.15-1.35,0.45-1.89c0.3-0.53,0.71-0.95,1.25-1.25c0.54-0.3,1.16-0.45,1.87-0.45
			C75.14,157.23,75.76,157.38,76.29,157.66z M73.53,159.01c-0.24,0.19-0.42,0.45-0.54,0.77c-0.12,0.32-0.18,0.68-0.18,1.07v0.81
			c0,0.39,0.06,0.75,0.17,1.07c0.11,0.32,0.29,0.58,0.53,0.77c0.24,0.19,0.54,0.29,0.92,0.29s0.67-0.09,0.91-0.29
			c0.23-0.19,0.41-0.45,0.52-0.77s0.17-0.68,0.17-1.07v-0.81c0-0.4-0.06-0.75-0.18-1.07c-0.12-0.32-0.29-0.57-0.53-0.77
			c-0.24-0.19-0.53-0.29-0.89-0.29C74.07,158.73,73.77,158.82,73.53,159.01z"/>
		<path d="M88.16,165.14h-1.99l-1.5-5.53h-0.06l-1.47,5.53h-2.01l-2.09-7.77h2.04l1.14,5.74h0.07l1.45-5.74h1.81l1.48,5.74h0.08
			l1.16-5.74h1.92L88.16,165.14z"/>
	</g>
	<g>
		<path d="M28.39,383.14c1.02,0,1.85,0.2,2.51,0.59c0.66,0.39,1.15,0.96,1.48,1.7c0.32,0.74,0.49,1.64,0.49,2.69
			c0,1.05-0.16,1.96-0.49,2.71s-0.82,1.33-1.48,1.72c-0.66,0.4-1.5,0.59-2.5,0.59h-3.65v-10H28.39z M26.72,391.52h1.41
			c0.46,0,0.87-0.07,1.21-0.21c0.34-0.14,0.62-0.35,0.84-0.63c0.22-0.28,0.38-0.63,0.49-1.05c0.11-0.42,0.17-0.91,0.17-1.48
			c0-0.75-0.1-1.38-0.29-1.88c-0.19-0.5-0.49-0.88-0.89-1.14c-0.4-0.25-0.91-0.38-1.53-0.38h-1.41V391.52z"/>
		<path d="M39.94,385.66c0.53,0.29,0.95,0.7,1.24,1.23c0.29,0.54,0.44,1.17,0.44,1.9v0.87c0,0.77-0.15,1.42-0.44,1.96
			c-0.3,0.54-0.71,0.95-1.24,1.23s-1.15,0.42-1.86,0.42c-0.72,0-1.34-0.14-1.88-0.42c-0.54-0.28-0.95-0.69-1.25-1.23
			c-0.3-0.54-0.44-1.19-0.44-1.96v-0.86c0-0.72,0.15-1.35,0.45-1.89c0.3-0.53,0.71-0.95,1.25-1.25c0.54-0.3,1.16-0.45,1.87-0.45
			C38.79,385.23,39.41,385.38,39.94,385.66z M37.18,387.01c-0.24,0.19-0.42,0.45-0.54,0.77c-0.12,0.32-0.18,0.68-0.18,1.07v0.81
			c0,0.39,0.06,0.75,0.17,1.07c0.11,0.32,0.29,0.58,0.53,0.77c0.24,0.19,0.54,0.29,0.92,0.29s0.67-0.09,0.91-0.29
			c0.23-0.19,0.41-0.45,0.52-0.77s0.17-0.68,0.17-1.07v-0.81c0-0.4-0.06-0.75-0.18-1.07c-0.12-0.32-0.29-0.57-0.53-0.77
			c-0.24-0.19-0.53-0.29-0.89-0.29C37.72,386.73,37.42,386.82,37.18,387.01z"/>
		<path d="M43.21,388.74c0-0.71,0.14-1.33,0.42-1.86c0.28-0.52,0.68-0.93,1.2-1.22c0.52-0.29,1.13-0.43,1.83-0.43
			c0.68,0,1.25,0.12,1.73,0.37c0.47,0.25,0.84,0.57,1.09,0.98c0.25,0.41,0.38,0.86,0.39,1.36h-1.78c-0.02-0.18-0.08-0.35-0.18-0.53
			s-0.24-0.33-0.44-0.45c-0.19-0.12-0.45-0.18-0.77-0.18c-0.5,0-0.89,0.18-1.16,0.54c-0.27,0.36-0.41,0.84-0.41,1.45v0.94
			c0,0.63,0.14,1.13,0.42,1.49s0.66,0.54,1.16,0.54c0.31,0,0.56-0.05,0.76-0.14s0.34-0.22,0.44-0.39c0.1-0.17,0.17-0.36,0.2-0.57
			h1.78c-0.01,0.49-0.14,0.94-0.38,1.34s-0.6,0.72-1.08,0.95c-0.48,0.23-1.07,0.35-1.78,0.35c-0.72,0-1.33-0.14-1.85-0.44
			c-0.52-0.29-0.91-0.7-1.19-1.23c-0.28-0.53-0.42-1.16-0.42-1.9V388.74z"/>
		<path d="M58.56,393.14h-1.88v-1.3h-0.1c-0.07,0.21-0.2,0.42-0.39,0.63c-0.19,0.22-0.43,0.4-0.75,0.55
			c-0.31,0.15-0.7,0.23-1.16,0.23c-0.51,0-0.96-0.09-1.35-0.27c-0.39-0.18-0.7-0.46-0.92-0.85c-0.22-0.39-0.33-0.89-0.33-1.5v-5.27
			h1.93v4.76c0,0.39,0.07,0.7,0.2,0.93c0.13,0.22,0.31,0.38,0.52,0.46c0.21,0.08,0.44,0.13,0.68,0.13c0.3,0,0.57-0.07,0.81-0.21
			s0.44-0.33,0.58-0.57c0.14-0.24,0.22-0.52,0.22-0.83v-4.67h1.93V393.14z"/>
		<path d="M60.86,385.37h1.88v1.28h0.1c0.06-0.2,0.16-0.4,0.32-0.62c0.15-0.21,0.38-0.4,0.67-0.56s0.67-0.23,1.14-0.23
			c0.39,0,0.73,0.06,1.02,0.19c0.29,0.13,0.53,0.3,0.71,0.52c0.19,0.22,0.32,0.47,0.4,0.75h0.07c0.09-0.24,0.24-0.47,0.44-0.7
			c0.2-0.22,0.46-0.41,0.78-0.55c0.32-0.14,0.7-0.22,1.14-0.22c0.79,0,1.41,0.22,1.85,0.66c0.44,0.44,0.66,1.04,0.66,1.8v5.43h-1.93
			v-4.83c0-0.33-0.06-0.6-0.16-0.82c-0.11-0.22-0.27-0.38-0.47-0.49c-0.2-0.11-0.43-0.17-0.7-0.17c-0.26,0-0.5,0.06-0.71,0.19
			s-0.38,0.31-0.5,0.54c-0.12,0.23-0.19,0.52-0.19,0.85v4.72h-1.86v-4.8c0-0.34-0.06-0.62-0.18-0.85c-0.12-0.22-0.28-0.39-0.48-0.5
			c-0.2-0.11-0.44-0.17-0.7-0.17c-0.26,0-0.49,0.06-0.7,0.18c-0.21,0.12-0.37,0.3-0.49,0.53c-0.12,0.23-0.18,0.52-0.18,0.86v4.74
			h-1.93V385.37z"/>
		<path d="M75.6,392.87c-0.53-0.28-0.94-0.68-1.23-1.21s-0.44-1.18-0.44-1.94v-0.92c0-0.77,0.15-1.42,0.46-1.94
			c0.3-0.53,0.72-0.93,1.24-1.21s1.11-0.41,1.75-0.41c0.67,0,1.27,0.14,1.78,0.43c0.51,0.29,0.92,0.7,1.21,1.23
			c0.29,0.53,0.44,1.17,0.44,1.9v0.89h-4.99v0.37c0,0.51,0.15,0.93,0.45,1.25s0.7,0.49,1.2,0.49c0.26,0,0.5-0.04,0.7-0.11
			c0.21-0.08,0.37-0.18,0.5-0.31s0.21-0.28,0.23-0.44h1.83c-0.02,0.24-0.1,0.5-0.23,0.77c-0.14,0.27-0.34,0.53-0.6,0.77
			s-0.59,0.43-0.99,0.59s-0.88,0.23-1.44,0.23C76.76,393.28,76.13,393.14,75.6,392.87z M78.94,388.51c0-0.01,0-0.03,0-0.04
			c0-0.01,0-0.03,0-0.04c0-0.35-0.06-0.66-0.19-0.92c-0.13-0.26-0.31-0.46-0.54-0.61s-0.5-0.22-0.82-0.22s-0.59,0.07-0.82,0.22
			s-0.42,0.35-0.55,0.61c-0.13,0.26-0.2,0.57-0.2,0.92c0,0.01,0,0.03,0,0.04c0,0.01,0,0.03,0,0.04H78.94z"/>
		<path d="M82.72,385.37h1.88v1.37h0.1c0.06-0.21,0.18-0.42,0.35-0.65c0.17-0.23,0.41-0.43,0.73-0.59s0.73-0.25,1.24-0.25
			c0.78,0,1.41,0.22,1.88,0.67c0.47,0.45,0.71,1.12,0.71,2.02v5.21h-1.93v-4.67c0-0.38-0.06-0.7-0.19-0.93
			c-0.12-0.23-0.29-0.41-0.5-0.52c-0.21-0.11-0.45-0.17-0.71-0.17c-0.35,0-0.64,0.08-0.89,0.25s-0.43,0.4-0.56,0.69
			c-0.13,0.3-0.19,0.64-0.19,1.03v4.31h-1.93V385.37z"/>
		<path d="M92.39,383.51h1.88v1.93h1.72v1.48h-1.72v3.77c0,0.39,0.09,0.65,0.26,0.79c0.17,0.14,0.46,0.22,0.87,0.22
			c0.12,0,0.25,0,0.37-0.01c0.13-0.01,0.22-0.01,0.29-0.02v1.43c-0.07,0.02-0.23,0.03-0.46,0.05s-0.46,0.03-0.68,0.03
			c-0.64,0-1.15-0.08-1.53-0.23c-0.38-0.15-0.64-0.4-0.81-0.73c-0.16-0.33-0.24-0.76-0.24-1.29v-4.02h-1.18v-1.48h1.22V383.51z"/>
		<path d="M24.95,407.62c-0.47-0.43-0.71-1-0.71-1.74c0-0.7,0.24-1.26,0.71-1.68c0.47-0.42,1.16-0.63,2.06-0.63h1.9v-0.7
			c0-0.39-0.12-0.68-0.35-0.87s-0.55-0.29-0.94-0.29c-0.26,0-0.48,0.04-0.66,0.11c-0.17,0.07-0.31,0.17-0.41,0.29
			c-0.1,0.12-0.16,0.27-0.2,0.43h-1.82c0.02-0.32,0.1-0.62,0.23-0.89c0.13-0.28,0.32-0.52,0.57-0.73s0.57-0.38,0.95-0.49
			c0.39-0.12,0.84-0.18,1.38-0.18c0.58,0,1.11,0.09,1.59,0.26s0.86,0.45,1.15,0.84c0.29,0.39,0.43,0.92,0.43,1.57v5.22h-1.82v-0.99
			H28.9c-0.1,0.19-0.25,0.37-0.43,0.54c-0.18,0.17-0.41,0.3-0.69,0.41c-0.28,0.1-0.61,0.16-0.99,0.16
			C26.03,408.26,25.42,408.05,24.95,407.62z M28.17,406.67c0.22-0.11,0.4-0.27,0.53-0.46s0.2-0.42,0.2-0.67v-0.81h-1.49
			c-0.43,0-0.75,0.1-0.95,0.29c-0.21,0.19-0.31,0.44-0.31,0.74c0,0.37,0.13,0.64,0.39,0.81s0.55,0.26,0.88,0.26
			C27.69,406.84,27.94,406.78,28.17,406.67z"/>
		<path d="M32.69,403.74c0-0.71,0.14-1.33,0.42-1.86c0.28-0.52,0.68-0.93,1.2-1.22c0.52-0.29,1.13-0.43,1.83-0.43
			c0.68,0,1.25,0.12,1.73,0.37c0.47,0.25,0.84,0.57,1.09,0.98c0.25,0.41,0.38,0.86,0.39,1.36h-1.78c-0.02-0.18-0.08-0.35-0.18-0.53
			s-0.24-0.33-0.44-0.45c-0.19-0.12-0.45-0.18-0.77-0.18c-0.5,0-0.89,0.18-1.16,0.54c-0.27,0.36-0.41,0.84-0.41,1.45v0.94
			c0,0.63,0.14,1.13,0.42,1.49s0.66,0.54,1.16,0.54c0.31,0,0.56-0.05,0.76-0.14s0.34-0.22,0.44-0.39c0.1-0.17,0.17-0.36,0.2-0.57
			h1.78c-0.01,0.49-0.14,0.94-0.38,1.34s-0.6,0.72-1.08,0.95c-0.48,0.23-1.07,0.35-1.78,0.35c-0.72,0-1.33-0.14-1.85-0.44
			c-0.52-0.29-0.91-0.7-1.19-1.23c-0.28-0.53-0.42-1.16-0.42-1.9V403.74z"/>
		<path d="M41.73,398.51h1.88v1.93h1.72v1.48H43.6v3.77c0,0.39,0.09,0.65,0.26,0.79c0.17,0.14,0.46,0.22,0.87,0.22
			c0.12,0,0.25,0,0.37-0.01c0.13-0.01,0.22-0.01,0.29-0.02v1.43c-0.07,0.02-0.23,0.03-0.46,0.05s-0.46,0.03-0.68,0.03
			c-0.64,0-1.15-0.08-1.53-0.23c-0.38-0.15-0.64-0.4-0.81-0.73c-0.16-0.33-0.24-0.76-0.24-1.29v-4.02H40.5v-1.48h1.22V398.51z"/>
		<path d="M47.44,397.3c0.22-0.2,0.52-0.3,0.87-0.3c0.36,0,0.65,0.1,0.88,0.3c0.22,0.2,0.34,0.46,0.34,0.78
			c0,0.31-0.11,0.57-0.34,0.77c-0.22,0.2-0.52,0.3-0.88,0.3c-0.36,0-0.65-0.1-0.87-0.3c-0.22-0.2-0.34-0.45-0.34-0.77
			C47.1,397.76,47.21,397.5,47.44,397.3z M47.35,400.37h1.93v7.77h-1.93V400.37z"/>
		<path d="M56.79,400.66c0.53,0.29,0.95,0.7,1.24,1.23c0.29,0.54,0.44,1.17,0.44,1.9v0.87c0,0.77-0.15,1.42-0.44,1.96
			c-0.3,0.54-0.71,0.95-1.24,1.23s-1.15,0.42-1.86,0.42c-0.72,0-1.34-0.14-1.88-0.42c-0.54-0.28-0.95-0.69-1.25-1.23
			c-0.3-0.54-0.44-1.19-0.44-1.96v-0.86c0-0.72,0.15-1.35,0.45-1.89c0.3-0.53,0.71-0.95,1.25-1.25c0.54-0.3,1.16-0.45,1.87-0.45
			C55.64,400.23,56.26,400.38,56.79,400.66z M54.03,402.01c-0.24,0.19-0.42,0.45-0.54,0.77c-0.12,0.32-0.18,0.68-0.18,1.07v0.81
			c0,0.39,0.06,0.75,0.17,1.07c0.11,0.32,0.29,0.58,0.53,0.77c0.24,0.19,0.54,0.29,0.92,0.29s0.67-0.09,0.91-0.29
			c0.23-0.19,0.41-0.45,0.52-0.77s0.17-0.68,0.17-1.07v-0.81c0-0.4-0.06-0.75-0.18-1.07c-0.12-0.32-0.29-0.57-0.53-0.77
			c-0.24-0.19-0.53-0.29-0.89-0.29C54.57,401.73,54.27,401.82,54.03,402.01z"/>
		<path d="M60.42,400.37h1.88v1.37h0.1c0.06-0.21,0.18-0.42,0.35-0.65c0.17-0.23,0.41-0.43,0.73-0.59s0.73-0.25,1.24-0.25
			c0.78,0,1.41,0.22,1.88,0.67c0.47,0.45,0.71,1.12,0.71,2.02v5.21h-1.93v-4.67c0-0.38-0.06-0.7-0.19-0.93
			c-0.12-0.23-0.29-0.41-0.5-0.52c-0.21-0.11-0.45-0.17-0.71-0.17c-0.35,0-0.64,0.08-0.89,0.25s-0.43,0.4-0.56,0.69
			c-0.13,0.3-0.19,0.64-0.19,1.03v4.31h-1.93V400.37z"/>
		<path d="M69.7,401.26c0.29-0.36,0.67-0.62,1.15-0.78c0.48-0.16,0.99-0.25,1.53-0.25c0.58,0,1.09,0.09,1.54,0.27
			c0.45,0.18,0.8,0.44,1.05,0.77s0.38,0.75,0.38,1.23h-1.71c-0.01-0.16-0.07-0.31-0.17-0.45c-0.1-0.14-0.24-0.26-0.43-0.35
			c-0.19-0.09-0.42-0.14-0.7-0.14c-0.39,0-0.69,0.08-0.91,0.25c-0.22,0.17-0.33,0.4-0.33,0.68c0,0.2,0.06,0.36,0.19,0.48
			s0.29,0.22,0.49,0.29c0.2,0.07,0.42,0.13,0.66,0.17c0.23,0.04,0.46,0.08,0.67,0.11c0.48,0.08,0.9,0.2,1.28,0.36
			c0.37,0.16,0.67,0.39,0.88,0.68c0.21,0.29,0.32,0.68,0.32,1.15c0,0.53-0.13,0.99-0.4,1.36c-0.26,0.38-0.64,0.67-1.14,0.87
			c-0.5,0.2-1.09,0.3-1.79,0.3c-0.66,0-1.22-0.09-1.7-0.28c-0.47-0.19-0.83-0.45-1.08-0.79s-0.37-0.74-0.37-1.21h1.87
			c0.03,0.19,0.1,0.36,0.2,0.5c0.1,0.14,0.25,0.25,0.45,0.33c0.2,0.08,0.44,0.12,0.73,0.12c0.32,0,0.58-0.04,0.78-0.13
			s0.35-0.21,0.44-0.35c0.09-0.15,0.14-0.31,0.14-0.49c0-0.25-0.09-0.44-0.27-0.56c-0.18-0.13-0.42-0.22-0.71-0.29
			c-0.29-0.07-0.61-0.13-0.94-0.19c-0.46-0.09-0.89-0.22-1.27-0.38c-0.38-0.16-0.69-0.39-0.92-0.68c-0.23-0.3-0.34-0.7-0.34-1.2
			C69.26,402.08,69.41,401.61,69.7,401.26z"/>
	</g>
	<g>
		<path d="M32.39,565.72c-0.34,0.68-0.83,1.2-1.47,1.57c-0.64,0.36-1.4,0.55-2.3,0.55c-0.89,0-1.65-0.18-2.3-0.55
			c-0.64-0.36-1.13-0.89-1.48-1.57c-0.34-0.68-0.51-1.49-0.51-2.43v-1.28c0-0.95,0.17-1.76,0.51-2.44c0.34-0.68,0.83-1.2,1.48-1.57
			c0.64-0.36,1.41-0.54,2.3-0.54c0.89,0,1.66,0.18,2.3,0.55c0.64,0.37,1.13,0.89,1.47,1.57c0.34,0.68,0.51,1.49,0.51,2.43v1.28
			C32.9,564.23,32.73,565.04,32.39,565.72z M30.6,560.39c-0.2-0.43-0.46-0.75-0.81-0.96s-0.73-0.32-1.17-0.32
			c-0.44,0-0.84,0.11-1.18,0.32c-0.34,0.21-0.61,0.54-0.8,0.96c-0.2,0.43-0.29,0.96-0.29,1.61v1.3c0,0.64,0.1,1.17,0.29,1.6
			s0.46,0.75,0.8,0.96c0.34,0.21,0.73,0.32,1.18,0.32c0.44,0,0.83-0.11,1.17-0.32c0.34-0.21,0.61-0.53,0.81-0.96s0.29-0.96,0.29-1.6
			V562C30.89,561.35,30.8,560.82,30.6,560.39z"/>
		<path d="M41.72,567.64h-1.88v-1.3h-0.1c-0.07,0.21-0.2,0.42-0.39,0.63c-0.19,0.22-0.43,0.4-0.75,0.55
			c-0.31,0.15-0.7,0.23-1.16,0.23c-0.51,0-0.96-0.09-1.35-0.27c-0.39-0.18-0.7-0.46-0.92-0.85c-0.22-0.39-0.33-0.89-0.33-1.5v-5.27
			h1.93v4.76c0,0.39,0.07,0.7,0.2,0.93c0.13,0.22,0.31,0.38,0.52,0.46c0.21,0.08,0.44,0.13,0.68,0.13c0.3,0,0.57-0.07,0.81-0.21
			s0.44-0.33,0.58-0.57c0.14-0.24,0.22-0.52,0.22-0.83v-4.67h1.93V567.64z"/>
		<path d="M44.6,558.01h1.88v1.93h1.72v1.48h-1.72v3.77c0,0.39,0.09,0.65,0.26,0.79c0.17,0.14,0.46,0.22,0.87,0.22
			c0.12,0,0.25,0,0.37-0.01c0.13-0.01,0.22-0.01,0.29-0.02v1.43c-0.07,0.02-0.23,0.03-0.46,0.05s-0.46,0.03-0.68,0.03
			c-0.64,0-1.15-0.08-1.53-0.23c-0.38-0.15-0.64-0.4-0.81-0.73c-0.16-0.33-0.24-0.76-0.24-1.29v-4.02h-1.18v-1.48h1.22V558.01z"/>
		<path d="M53.36,567.59c-0.29-0.1-0.54-0.25-0.75-0.44c-0.21-0.19-0.37-0.42-0.49-0.7h-0.1v3.76h-1.93v-10.36h1.9v1.24h0.1
			c0.08-0.21,0.19-0.4,0.33-0.56c0.14-0.16,0.31-0.3,0.51-0.42c0.2-0.11,0.42-0.2,0.66-0.26c0.24-0.06,0.5-0.09,0.77-0.09
			c0.61,0,1.12,0.14,1.56,0.41c0.43,0.28,0.76,0.67,0.99,1.19c0.23,0.52,0.34,1.13,0.34,1.86v1.05c0,0.72-0.12,1.33-0.35,1.85
			c-0.23,0.52-0.57,0.92-1,1.19c-0.44,0.28-0.96,0.42-1.57,0.42C53.97,567.75,53.65,567.69,53.36,567.59z M54.54,565.96
			c0.24-0.17,0.42-0.41,0.55-0.72c0.13-0.31,0.19-0.69,0.19-1.14v-0.67c0-0.45-0.06-0.83-0.19-1.15c-0.13-0.31-0.31-0.55-0.55-0.72
			c-0.24-0.17-0.54-0.25-0.88-0.25c-0.33,0-0.62,0.08-0.86,0.24s-0.43,0.39-0.56,0.69s-0.2,0.65-0.2,1.06v1.01
			c0,0.38,0.07,0.71,0.21,1s0.33,0.51,0.58,0.67s0.54,0.23,0.86,0.23C54.01,566.21,54.3,566.12,54.54,565.96z"/>
		<path d="M66.03,567.64h-1.88v-1.3h-0.1c-0.07,0.21-0.2,0.42-0.39,0.63c-0.19,0.22-0.43,0.4-0.75,0.55
			c-0.31,0.15-0.7,0.23-1.16,0.23c-0.51,0-0.96-0.09-1.35-0.27c-0.39-0.18-0.7-0.46-0.92-0.85c-0.22-0.39-0.33-0.89-0.33-1.5v-5.27
			h1.93v4.76c0,0.39,0.07,0.7,0.2,0.93c0.13,0.22,0.31,0.38,0.52,0.46c0.21,0.08,0.44,0.13,0.68,0.13c0.3,0,0.57-0.07,0.81-0.21
			s0.44-0.33,0.58-0.57c0.14-0.24,0.22-0.52,0.22-0.83v-4.67h1.93V567.64z"/>
		<path d="M68.91,558.01h1.88v1.93h1.72v1.48h-1.72v3.77c0,0.39,0.09,0.65,0.26,0.79c0.17,0.14,0.46,0.22,0.87,0.22
			c0.12,0,0.25,0,0.37-0.01c0.13-0.01,0.22-0.01,0.29-0.02v1.43c-0.07,0.02-0.23,0.03-0.46,0.05s-0.46,0.03-0.68,0.03
			c-0.64,0-1.15-0.08-1.53-0.23c-0.38-0.15-0.64-0.4-0.81-0.73c-0.16-0.33-0.24-0.76-0.24-1.29v-4.02h-1.18v-1.48h1.22V558.01z"/>
		<path d="M29.71,575.16c0.53,0.29,0.95,0.7,1.24,1.23c0.29,0.54,0.44,1.17,0.44,1.9v0.87c0,0.77-0.15,1.42-0.44,1.96
			c-0.3,0.54-0.71,0.95-1.24,1.23s-1.15,0.42-1.86,0.42c-0.72,0-1.34-0.14-1.88-0.42c-0.54-0.28-0.95-0.69-1.25-1.23
			c-0.3-0.54-0.44-1.19-0.44-1.96v-0.86c0-0.72,0.15-1.35,0.45-1.89c0.3-0.53,0.71-0.95,1.25-1.25c0.54-0.3,1.16-0.45,1.87-0.45
			C28.55,574.73,29.17,574.88,29.71,575.16z M26.95,576.51c-0.24,0.19-0.42,0.45-0.54,0.77c-0.12,0.32-0.18,0.68-0.18,1.07v0.81
			c0,0.39,0.06,0.75,0.17,1.07c0.11,0.32,0.29,0.58,0.53,0.77c0.24,0.19,0.54,0.29,0.92,0.29s0.67-0.09,0.91-0.29
			c0.23-0.19,0.41-0.45,0.52-0.77s0.17-0.68,0.17-1.07v-0.81c0-0.4-0.06-0.75-0.18-1.07c-0.12-0.32-0.29-0.57-0.53-0.77
			c-0.24-0.19-0.53-0.29-0.89-0.29C27.48,576.23,27.18,576.32,26.95,576.51z"/>
		<path d="M36.6,582.59c-0.29-0.1-0.54-0.25-0.75-0.44c-0.21-0.19-0.37-0.42-0.49-0.7h-0.1v3.76h-1.93v-10.36h1.9v1.24h0.1
			c0.08-0.21,0.19-0.4,0.33-0.56c0.14-0.16,0.31-0.3,0.51-0.42c0.2-0.11,0.42-0.2,0.66-0.26c0.24-0.06,0.5-0.09,0.77-0.09
			c0.61,0,1.12,0.14,1.56,0.41c0.43,0.28,0.76,0.67,0.99,1.19c0.23,0.52,0.34,1.13,0.34,1.86v1.05c0,0.72-0.12,1.33-0.35,1.85
			c-0.23,0.52-0.57,0.92-1,1.19c-0.44,0.28-0.96,0.42-1.57,0.42C37.21,582.75,36.89,582.69,36.6,582.59z M37.78,580.96
			c0.24-0.17,0.42-0.41,0.55-0.72c0.13-0.31,0.19-0.69,0.19-1.14v-0.67c0-0.45-0.06-0.83-0.19-1.15c-0.13-0.31-0.31-0.55-0.55-0.72
			c-0.24-0.17-0.54-0.25-0.88-0.25c-0.33,0-0.62,0.08-0.86,0.24s-0.43,0.39-0.56,0.69s-0.2,0.65-0.2,1.06v1.01
			c0,0.38,0.07,0.71,0.21,1s0.33,0.51,0.58,0.67s0.54,0.23,0.86,0.23C37.26,581.21,37.54,581.12,37.78,580.96z"/>
		<path d="M42.97,573.01h1.88v1.93h1.72v1.48h-1.72v3.77c0,0.39,0.09,0.65,0.26,0.79c0.17,0.14,0.46,0.22,0.87,0.22
			c0.12,0,0.25,0,0.37-0.01c0.13-0.01,0.22-0.01,0.29-0.02v1.43c-0.07,0.02-0.23,0.03-0.46,0.05s-0.46,0.03-0.68,0.03
			c-0.64,0-1.15-0.08-1.53-0.23c-0.38-0.15-0.64-0.4-0.81-0.73c-0.16-0.33-0.24-0.76-0.24-1.29v-4.02h-1.18v-1.48h1.22V573.01z"/>
		<path d="M48.68,571.8c0.22-0.2,0.52-0.3,0.87-0.3c0.36,0,0.65,0.1,0.88,0.3c0.22,0.2,0.34,0.46,0.34,0.78
			c0,0.31-0.11,0.57-0.34,0.77c-0.22,0.2-0.52,0.3-0.88,0.3c-0.36,0-0.65-0.1-0.87-0.3c-0.22-0.2-0.34-0.45-0.34-0.77
			C48.35,572.26,48.46,572,48.68,571.8z M48.6,574.87h1.93v7.77H48.6V574.87z"/>
		<path d="M58.04,575.16c0.53,0.29,0.95,0.7,1.24,1.23c0.29,0.54,0.44,1.17,0.44,1.9v0.87c0,0.77-0.15,1.42-0.44,1.96
			c-0.3,0.54-0.71,0.95-1.24,1.23s-1.15,0.42-1.86,0.42c-0.72,0-1.34-0.14-1.88-0.42c-0.54-0.28-0.95-0.69-1.25-1.23
			c-0.3-0.54-0.44-1.19-0.44-1.96v-0.86c0-0.72,0.15-1.35,0.45-1.89c0.3-0.53,0.71-0.95,1.25-1.25c0.54-0.3,1.16-0.45,1.87-0.45
			C56.88,574.73,57.5,574.88,58.04,575.16z M55.28,576.51c-0.24,0.19-0.42,0.45-0.54,0.77c-0.12,0.32-0.18,0.68-0.18,1.07v0.81
			c0,0.39,0.06,0.75,0.17,1.07c0.11,0.32,0.29,0.58,0.53,0.77c0.24,0.19,0.54,0.29,0.92,0.29s0.67-0.09,0.91-0.29
			c0.23-0.19,0.41-0.45,0.52-0.77s0.17-0.68,0.17-1.07v-0.81c0-0.4-0.06-0.75-0.18-1.07c-0.12-0.32-0.29-0.57-0.53-0.77
			c-0.24-0.19-0.53-0.29-0.89-0.29C55.81,576.23,55.51,576.32,55.28,576.51z"/>
		<path d="M61.66,574.87h1.88v1.37h0.1c0.06-0.21,0.18-0.42,0.35-0.65c0.17-0.23,0.41-0.43,0.73-0.59s0.73-0.25,1.24-0.25
			c0.78,0,1.41,0.22,1.88,0.67c0.47,0.45,0.71,1.12,0.71,2.02v5.21h-1.93v-4.67c0-0.38-0.06-0.7-0.19-0.93
			c-0.12-0.23-0.29-0.41-0.5-0.52c-0.21-0.11-0.45-0.17-0.71-0.17c-0.35,0-0.64,0.08-0.89,0.25s-0.43,0.4-0.56,0.69
			c-0.13,0.3-0.19,0.64-0.19,1.03v4.31h-1.93V574.87z"/>
		<path d="M70.95,575.76c0.29-0.36,0.67-0.62,1.15-0.78c0.48-0.16,0.99-0.25,1.53-0.25c0.58,0,1.09,0.09,1.54,0.27
			c0.45,0.18,0.8,0.44,1.05,0.77s0.38,0.75,0.38,1.23h-1.71c-0.01-0.16-0.07-0.31-0.17-0.45c-0.1-0.14-0.24-0.26-0.43-0.35
			c-0.19-0.09-0.42-0.14-0.7-0.14c-0.39,0-0.69,0.08-0.91,0.25c-0.22,0.17-0.33,0.4-0.33,0.68c0,0.2,0.06,0.36,0.19,0.48
			s0.29,0.22,0.49,0.29c0.2,0.07,0.42,0.13,0.66,0.17c0.23,0.04,0.46,0.08,0.67,0.11c0.48,0.08,0.9,0.2,1.28,0.36
			c0.37,0.16,0.67,0.39,0.88,0.68c0.21,0.29,0.32,0.68,0.32,1.15c0,0.53-0.13,0.99-0.4,1.36c-0.26,0.38-0.64,0.67-1.14,0.87
			c-0.5,0.2-1.09,0.3-1.79,0.3c-0.66,0-1.22-0.09-1.7-0.28c-0.47-0.19-0.83-0.45-1.08-0.79s-0.37-0.74-0.37-1.21h1.87
			c0.03,0.19,0.1,0.36,0.2,0.5c0.1,0.14,0.25,0.25,0.45,0.33c0.2,0.08,0.44,0.12,0.73,0.12c0.32,0,0.58-0.04,0.78-0.13
			s0.35-0.21,0.44-0.35c0.09-0.15,0.14-0.31,0.14-0.49c0-0.25-0.09-0.44-0.27-0.56c-0.18-0.13-0.42-0.22-0.71-0.29
			c-0.29-0.07-0.61-0.13-0.94-0.19c-0.46-0.09-0.89-0.22-1.27-0.38c-0.38-0.16-0.69-0.39-0.92-0.68c-0.23-0.3-0.34-0.7-0.34-1.2
			C70.51,576.58,70.65,576.11,70.95,575.76z"/>
	</g>
	<g>
		<path d="M26.04,707.92c0.03,0.19,0.1,0.37,0.21,0.53c0.11,0.16,0.25,0.31,0.42,0.43c0.18,0.12,0.38,0.22,0.62,0.29
			s0.51,0.1,0.8,0.1c0.41,0,0.76-0.06,1.04-0.18c0.28-0.12,0.49-0.28,0.63-0.49c0.14-0.21,0.21-0.45,0.21-0.72
			c0-0.35-0.13-0.62-0.38-0.82c-0.25-0.2-0.64-0.36-1.16-0.48l-1.55-0.36c-0.52-0.12-0.97-0.3-1.35-0.54s-0.67-0.54-0.88-0.92
			c-0.21-0.37-0.31-0.81-0.31-1.31c0-0.61,0.16-1.14,0.48-1.6s0.76-0.81,1.32-1.05s1.21-0.37,1.94-0.37c0.76,0,1.41,0.13,1.95,0.38
			c0.54,0.25,0.96,0.59,1.25,1.02c0.29,0.43,0.46,0.9,0.49,1.42h-1.88c-0.04-0.24-0.14-0.45-0.3-0.64
			c-0.15-0.19-0.36-0.34-0.62-0.45s-0.57-0.17-0.92-0.17c-0.54,0-0.97,0.13-1.28,0.38c-0.31,0.25-0.47,0.57-0.47,0.96
			c0,0.3,0.12,0.55,0.36,0.75s0.58,0.34,1.01,0.44l1.55,0.36c0.54,0.12,1.01,0.3,1.41,0.52c0.4,0.23,0.71,0.53,0.94,0.9
			c0.22,0.37,0.34,0.84,0.34,1.4c0,0.62-0.16,1.17-0.47,1.64c-0.31,0.47-0.76,0.84-1.35,1.1s-1.3,0.4-2.15,0.4
			c-0.63,0-1.19-0.08-1.66-0.23c-0.47-0.15-0.87-0.36-1.19-0.63c-0.32-0.27-0.56-0.58-0.73-0.93s-0.26-0.73-0.28-1.12H26.04z"/>
		<path d="M38.93,703.16c0.53,0.29,0.95,0.7,1.24,1.23c0.29,0.54,0.44,1.17,0.44,1.9v0.87c0,0.77-0.15,1.42-0.44,1.96
			c-0.3,0.54-0.71,0.95-1.24,1.23s-1.15,0.42-1.86,0.42c-0.72,0-1.34-0.14-1.88-0.42c-0.54-0.28-0.95-0.69-1.25-1.23
			c-0.3-0.54-0.44-1.19-0.44-1.96v-0.86c0-0.72,0.15-1.35,0.45-1.89c0.3-0.53,0.71-0.95,1.25-1.25c0.54-0.3,1.16-0.45,1.87-0.45
			C37.78,702.73,38.4,702.88,38.93,703.16z M36.17,704.51c-0.24,0.19-0.42,0.45-0.54,0.77c-0.12,0.32-0.18,0.68-0.18,1.07v0.81
			c0,0.39,0.06,0.75,0.17,1.07c0.11,0.32,0.29,0.58,0.53,0.77c0.24,0.19,0.54,0.29,0.92,0.29s0.67-0.09,0.91-0.29
			c0.23-0.19,0.41-0.45,0.52-0.77s0.17-0.68,0.17-1.07v-0.81c0-0.4-0.06-0.75-0.18-1.07c-0.12-0.32-0.29-0.57-0.53-0.77
			c-0.24-0.19-0.53-0.29-0.89-0.29C36.71,704.23,36.41,704.32,36.17,704.51z"/>
		<path d="M49.37,710.64h-1.88v-1.3h-0.1c-0.07,0.21-0.2,0.42-0.39,0.63c-0.19,0.22-0.43,0.4-0.75,0.55
			c-0.31,0.15-0.7,0.23-1.16,0.23c-0.51,0-0.96-0.09-1.35-0.27c-0.39-0.18-0.7-0.46-0.92-0.85c-0.22-0.39-0.33-0.89-0.33-1.5v-5.27
			h1.93v4.76c0,0.39,0.07,0.7,0.2,0.93c0.13,0.22,0.31,0.38,0.52,0.46c0.21,0.08,0.44,0.13,0.68,0.13c0.3,0,0.57-0.07,0.81-0.21
			s0.44-0.33,0.58-0.57c0.14-0.24,0.22-0.52,0.22-0.83v-4.67h1.93V710.64z"/>
		<path d="M51.75,702.87h1.93v1.22h0.1c0.05-0.18,0.16-0.37,0.31-0.58s0.36-0.38,0.63-0.53c0.27-0.15,0.61-0.22,1.02-0.22
			c0.13,0,0.24,0.01,0.34,0.02s0.19,0.02,0.26,0.04v1.67c-0.07-0.02-0.18-0.04-0.32-0.05c-0.14-0.01-0.29-0.02-0.44-0.02
			c-0.42,0-0.77,0.08-1.04,0.23s-0.48,0.36-0.62,0.63s-0.2,0.58-0.2,0.93v4.45h-1.97V702.87z"/>
		<path d="M57.46,706.24c0-0.71,0.14-1.33,0.42-1.86c0.28-0.52,0.68-0.93,1.2-1.22c0.52-0.29,1.13-0.43,1.83-0.43
			c0.68,0,1.25,0.12,1.73,0.37c0.47,0.25,0.84,0.57,1.09,0.98c0.25,0.41,0.38,0.86,0.39,1.36h-1.78c-0.02-0.18-0.08-0.35-0.18-0.53
			s-0.24-0.33-0.44-0.45c-0.19-0.12-0.45-0.18-0.77-0.18c-0.5,0-0.89,0.18-1.16,0.54c-0.27,0.36-0.41,0.84-0.41,1.45v0.94
			c0,0.63,0.14,1.13,0.42,1.49s0.66,0.54,1.16,0.54c0.31,0,0.56-0.05,0.76-0.14s0.34-0.22,0.44-0.39c0.1-0.17,0.17-0.36,0.2-0.57
			h1.78c-0.01,0.49-0.14,0.94-0.38,1.34s-0.6,0.72-1.08,0.95c-0.48,0.23-1.07,0.35-1.78,0.35c-0.72,0-1.33-0.14-1.85-0.44
			c-0.52-0.29-0.91-0.7-1.19-1.23c-0.28-0.53-0.42-1.16-0.42-1.9V706.24z"/>
		<path d="M67.31,710.37c-0.53-0.28-0.94-0.68-1.23-1.21s-0.44-1.18-0.44-1.94v-0.92c0-0.77,0.15-1.42,0.46-1.94
			c0.3-0.53,0.72-0.93,1.24-1.21s1.11-0.41,1.75-0.41c0.67,0,1.27,0.14,1.78,0.43c0.51,0.29,0.92,0.7,1.21,1.23
			c0.29,0.53,0.44,1.17,0.44,1.9v0.89h-4.99v0.37c0,0.51,0.15,0.93,0.45,1.25s0.7,0.49,1.2,0.49c0.26,0,0.5-0.04,0.7-0.11
			c0.21-0.08,0.37-0.18,0.5-0.31s0.21-0.28,0.23-0.44h1.83c-0.02,0.24-0.1,0.5-0.23,0.77c-0.14,0.27-0.34,0.53-0.6,0.77
			s-0.59,0.43-0.99,0.59s-0.88,0.23-1.44,0.23C68.47,710.78,67.84,710.64,67.31,710.37z M70.65,706.01c0-0.01,0-0.03,0-0.04
			c0-0.01,0-0.03,0-0.04c0-0.35-0.06-0.66-0.19-0.92c-0.13-0.26-0.31-0.46-0.54-0.61s-0.5-0.22-0.82-0.22s-0.59,0.07-0.82,0.22
			s-0.42,0.35-0.55,0.61c-0.13,0.26-0.2,0.57-0.2,0.92c0,0.01,0,0.03,0,0.04c0,0.01,0,0.03,0,0.04H70.65z"/>
		<path d="M31.46,725.64h-1.88v-1.3h-0.1c-0.07,0.21-0.2,0.42-0.39,0.63c-0.19,0.22-0.43,0.4-0.75,0.55
			c-0.31,0.15-0.7,0.23-1.16,0.23c-0.51,0-0.96-0.09-1.35-0.27c-0.39-0.18-0.7-0.46-0.92-0.85c-0.22-0.39-0.33-0.89-0.33-1.5v-5.27
			h1.93v4.76c0,0.39,0.07,0.7,0.2,0.93c0.13,0.22,0.31,0.38,0.52,0.46c0.21,0.08,0.44,0.13,0.68,0.13c0.3,0,0.57-0.07,0.81-0.21
			s0.44-0.33,0.58-0.57c0.14-0.24,0.22-0.52,0.22-0.83v-4.67h1.93V725.64z"/>
		<path d="M37.03,725.59c-0.29-0.1-0.54-0.25-0.75-0.44c-0.21-0.19-0.37-0.42-0.49-0.7h-0.1v3.76h-1.93v-10.36h1.9v1.24h0.1
			c0.08-0.21,0.19-0.4,0.33-0.56c0.14-0.16,0.31-0.3,0.51-0.42c0.2-0.11,0.42-0.2,0.66-0.26c0.24-0.06,0.5-0.09,0.77-0.09
			c0.61,0,1.12,0.14,1.56,0.41c0.43,0.28,0.76,0.67,0.99,1.19c0.23,0.52,0.34,1.13,0.34,1.86v1.05c0,0.72-0.12,1.33-0.35,1.85
			c-0.23,0.52-0.57,0.92-1,1.19c-0.44,0.28-0.96,0.42-1.57,0.42C37.64,725.75,37.32,725.69,37.03,725.59z M38.21,723.96
			c0.24-0.17,0.42-0.41,0.55-0.72c0.13-0.31,0.19-0.69,0.19-1.14v-0.67c0-0.45-0.06-0.83-0.19-1.15c-0.13-0.31-0.31-0.55-0.55-0.72
			c-0.24-0.17-0.54-0.25-0.88-0.25c-0.33,0-0.62,0.08-0.86,0.24s-0.43,0.39-0.56,0.69s-0.2,0.65-0.2,1.06v1.01
			c0,0.38,0.07,0.71,0.21,1s0.33,0.51,0.58,0.67s0.54,0.23,0.86,0.23C37.68,724.21,37.97,724.12,38.21,723.96z"/>
		<path d="M46.45,717.92c0.3,0.1,0.55,0.25,0.76,0.44c0.21,0.19,0.37,0.42,0.47,0.68h0.09v-3.93h1.93v10.53h-1.9v-1.25h-0.1
			c-0.06,0.2-0.16,0.38-0.3,0.55c-0.14,0.16-0.31,0.3-0.51,0.42s-0.42,0.21-0.67,0.27c-0.25,0.07-0.52,0.1-0.8,0.1
			c-0.59,0-1.1-0.14-1.53-0.41c-0.43-0.27-0.77-0.66-1.01-1.17c-0.24-0.51-0.36-1.12-0.36-1.83v-1.16c0-0.71,0.12-1.32,0.36-1.83
			c0.24-0.51,0.58-0.9,1.02-1.17c0.44-0.27,0.95-0.41,1.54-0.41C45.82,717.77,46.15,717.82,46.45,717.92z M45.26,719.55
			c-0.24,0.16-0.42,0.4-0.55,0.7c-0.13,0.31-0.19,0.68-0.19,1.12v0.75c0,0.44,0.07,0.82,0.2,1.13c0.13,0.31,0.32,0.55,0.56,0.71
			c0.24,0.16,0.53,0.24,0.86,0.24c0.33,0,0.61-0.08,0.86-0.24c0.25-0.16,0.44-0.39,0.57-0.68s0.21-0.66,0.21-1.08v-1
			c0-0.39-0.07-0.73-0.22-1.01c-0.14-0.28-0.34-0.5-0.59-0.66c-0.25-0.16-0.54-0.23-0.86-0.23
			C45.78,719.31,45.5,719.39,45.26,719.55z"/>
		<path d="M52.34,725.12c-0.47-0.43-0.71-1-0.71-1.74c0-0.7,0.24-1.26,0.71-1.68c0.47-0.42,1.16-0.63,2.06-0.63h1.9v-0.7
			c0-0.39-0.12-0.68-0.35-0.87s-0.55-0.29-0.94-0.29c-0.26,0-0.48,0.04-0.66,0.11c-0.17,0.07-0.31,0.17-0.41,0.29
			c-0.1,0.12-0.16,0.27-0.2,0.43h-1.82c0.02-0.32,0.1-0.62,0.23-0.89c0.13-0.28,0.32-0.52,0.57-0.73s0.57-0.38,0.95-0.49
			c0.39-0.12,0.84-0.18,1.38-0.18c0.58,0,1.11,0.09,1.59,0.26s0.86,0.45,1.15,0.84c0.29,0.39,0.43,0.92,0.43,1.57v5.22h-1.82v-0.99
			h-0.09c-0.1,0.19-0.25,0.37-0.43,0.54c-0.18,0.17-0.41,0.3-0.69,0.41c-0.28,0.1-0.61,0.16-0.99,0.16
			C53.43,725.76,52.81,725.55,52.34,725.12z M55.56,724.17c0.22-0.11,0.4-0.27,0.53-0.46s0.2-0.42,0.2-0.67v-0.81h-1.49
			c-0.43,0-0.75,0.1-0.95,0.29c-0.21,0.19-0.31,0.44-0.31,0.74c0,0.37,0.13,0.64,0.39,0.81s0.55,0.26,0.88,0.26
			C55.09,724.34,55.33,724.28,55.56,724.17z"/>
		<path d="M60.97,716.01h1.88v1.93h1.72v1.48h-1.72v3.77c0,0.39,0.09,0.65,0.26,0.79c0.17,0.14,0.46,0.22,0.87,0.22
			c0.12,0,0.25,0,0.37-0.01c0.13-0.01,0.22-0.01,0.29-0.02v1.43c-0.07,0.02-0.23,0.03-0.46,0.05s-0.46,0.03-0.68,0.03
			c-0.64,0-1.15-0.08-1.53-0.23c-0.38-0.15-0.64-0.4-0.81-0.73c-0.16-0.33-0.24-0.76-0.24-1.29v-4.02h-1.18v-1.48h1.22V716.01z"/>
		<path d="M66.68,714.8c0.22-0.2,0.52-0.3,0.87-0.3c0.36,0,0.65,0.1,0.88,0.3c0.22,0.2,0.34,0.46,0.34,0.78
			c0,0.31-0.11,0.57-0.34,0.77c-0.22,0.2-0.52,0.3-0.88,0.3c-0.36,0-0.65-0.1-0.87-0.3c-0.22-0.2-0.34-0.45-0.34-0.77
			C66.34,715.26,66.45,715,66.68,714.8z M66.59,717.87h1.93v7.77h-1.93V717.87z"/>
		<path d="M70.96,717.87h1.88v1.37h0.1c0.06-0.21,0.18-0.42,0.35-0.65c0.17-0.23,0.41-0.43,0.73-0.59s0.73-0.25,1.24-0.25
			c0.78,0,1.41,0.22,1.88,0.67c0.47,0.45,0.71,1.12,0.71,2.02v5.21h-1.93v-4.67c0-0.38-0.06-0.7-0.19-0.93
			c-0.12-0.23-0.29-0.41-0.5-0.52c-0.21-0.11-0.45-0.17-0.71-0.17c-0.35,0-0.64,0.08-0.89,0.25s-0.43,0.4-0.56,0.69
			c-0.13,0.3-0.19,0.64-0.19,1.03v4.31h-1.93V717.87z"/>
		<path d="M84.52,726.62c0.28-0.29,0.41-0.71,0.41-1.24v-1.1h-0.1c-0.07,0.17-0.18,0.33-0.31,0.48s-0.29,0.28-0.48,0.39
			s-0.4,0.2-0.63,0.26c-0.23,0.06-0.49,0.09-0.76,0.09c-0.57,0-1.07-0.13-1.52-0.4c-0.44-0.27-0.79-0.66-1.05-1.17
			s-0.38-1.14-0.38-1.87v-0.84c0-0.74,0.13-1.36,0.38-1.88s0.6-0.9,1.04-1.17s0.95-0.4,1.52-0.4c0.38,0,0.72,0.06,1.02,0.18
			c0.3,0.12,0.55,0.28,0.76,0.47s0.35,0.41,0.43,0.64h0.1v-1.19h1.89v7.62c0,0.55-0.1,1.02-0.3,1.4c-0.2,0.38-0.47,0.69-0.82,0.93
			c-0.34,0.23-0.74,0.4-1.18,0.51c-0.44,0.1-0.9,0.16-1.38,0.16c-0.74,0-1.35-0.11-1.83-0.32c-0.48-0.21-0.84-0.49-1.08-0.83
			c-0.24-0.34-0.37-0.71-0.4-1.11h1.88c0.03,0.17,0.12,0.31,0.25,0.44c0.13,0.12,0.3,0.22,0.51,0.29c0.21,0.07,0.45,0.11,0.73,0.11
			C83.82,727.06,84.24,726.91,84.52,726.62z M82.47,719.56c-0.25,0.17-0.44,0.41-0.57,0.71c-0.13,0.31-0.2,0.68-0.2,1.11v0.61
			c0,0.42,0.07,0.79,0.21,1.1c0.14,0.31,0.34,0.55,0.59,0.71c0.25,0.17,0.54,0.25,0.86,0.25c0.34,0,0.62-0.08,0.85-0.26
			c0.23-0.17,0.41-0.4,0.53-0.69c0.12-0.29,0.19-0.61,0.19-0.97v-0.89c0-0.37-0.06-0.7-0.19-0.99c-0.13-0.29-0.31-0.52-0.55-0.69
			c-0.24-0.17-0.52-0.26-0.85-0.26C83.01,719.31,82.72,719.39,82.47,719.56z"/>
	</g>
	<g>
		<path d="M30.59,764.14c-0.05-0.23-0.13-0.44-0.24-0.62c-0.11-0.18-0.25-0.34-0.42-0.48c-0.17-0.13-0.37-0.24-0.59-0.31
			c-0.23-0.07-0.48-0.11-0.75-0.11c-0.71,0-1.27,0.25-1.66,0.75c-0.39,0.5-0.59,1.21-0.59,2.12v1.24c0,0.59,0.08,1.1,0.25,1.54
			c0.16,0.44,0.42,0.78,0.76,1.03c0.34,0.25,0.77,0.37,1.3,0.37c0.46,0,0.84-0.08,1.14-0.25c0.3-0.16,0.53-0.38,0.68-0.66
			s0.23-0.58,0.23-0.91v-0.64h-2.06v-1.47h3.94v1.99c0,0.48-0.08,0.94-0.24,1.37c-0.16,0.43-0.41,0.81-0.73,1.15
			s-0.74,0.59-1.23,0.78c-0.5,0.19-1.08,0.28-1.75,0.28c-0.72,0-1.34-0.11-1.88-0.33c-0.53-0.22-0.98-0.54-1.34-0.94
			s-0.62-0.89-0.8-1.45s-0.26-1.18-0.26-1.86v-1.27c0-0.9,0.17-1.69,0.5-2.37c0.33-0.68,0.82-1.21,1.46-1.58
			c0.64-0.38,1.41-0.57,2.31-0.57c0.6,0,1.13,0.08,1.59,0.25c0.47,0.17,0.87,0.4,1.2,0.69s0.59,0.63,0.78,1.01
			c0.19,0.38,0.31,0.79,0.35,1.23H30.59z"/>
		<path d="M34.63,760.62h1.93v10.53h-1.93V760.62z"/>
		<path d="M43.97,763.66c0.53,0.29,0.95,0.7,1.24,1.23c0.29,0.54,0.44,1.17,0.44,1.9v0.87c0,0.77-0.15,1.42-0.44,1.96
			c-0.3,0.54-0.71,0.95-1.24,1.23s-1.15,0.42-1.86,0.42c-0.72,0-1.34-0.14-1.88-0.42c-0.54-0.28-0.95-0.69-1.25-1.23
			c-0.3-0.54-0.44-1.19-0.44-1.96v-0.86c0-0.72,0.15-1.35,0.45-1.89c0.3-0.53,0.71-0.95,1.25-1.25c0.54-0.3,1.16-0.45,1.87-0.45
			C42.81,763.23,43.43,763.38,43.97,763.66z M41.21,765.01c-0.24,0.19-0.42,0.45-0.54,0.77c-0.12,0.32-0.18,0.68-0.18,1.07v0.81
			c0,0.39,0.06,0.75,0.17,1.07c0.11,0.32,0.29,0.58,0.53,0.77c0.24,0.19,0.54,0.29,0.92,0.29s0.67-0.09,0.91-0.29
			c0.23-0.19,0.41-0.45,0.52-0.77s0.17-0.68,0.17-1.07v-0.81c0-0.4-0.06-0.75-0.18-1.07c-0.12-0.32-0.29-0.57-0.53-0.77
			c-0.24-0.19-0.53-0.29-0.89-0.29C41.75,764.73,41.44,764.82,41.21,765.01z"/>
		<path d="M50.86,771.09c-0.3-0.11-0.56-0.25-0.77-0.45c-0.21-0.19-0.38-0.42-0.48-0.68h-0.1v1.19h-1.9v-10.53h1.93v3.98h0.1
			c0.06-0.21,0.16-0.39,0.3-0.55c0.14-0.16,0.3-0.3,0.5-0.42c0.2-0.12,0.42-0.2,0.66-0.27s0.51-0.09,0.78-0.09
			c0.6,0,1.12,0.14,1.55,0.41c0.43,0.28,0.76,0.67,1,1.19c0.23,0.52,0.35,1.13,0.35,1.86v1.05c0,0.72-0.12,1.33-0.35,1.85
			s-0.57,0.92-1.01,1.19c-0.44,0.28-0.96,0.42-1.56,0.42C51.49,771.25,51.16,771.19,50.86,771.09z M52.07,769.46
			c0.24-0.16,0.42-0.4,0.54-0.72c0.12-0.32,0.18-0.69,0.18-1.14v-0.67c0-0.45-0.06-0.83-0.19-1.15c-0.12-0.32-0.31-0.56-0.55-0.73
			c-0.24-0.17-0.53-0.25-0.88-0.25c-0.34,0-0.63,0.08-0.88,0.25c-0.25,0.16-0.44,0.4-0.57,0.7c-0.13,0.3-0.2,0.66-0.2,1.07v0.97
			c0,0.38,0.07,0.71,0.21,1c0.14,0.29,0.34,0.52,0.59,0.68c0.25,0.16,0.54,0.24,0.87,0.24C51.55,769.71,51.84,769.62,52.07,769.46z"
			/>
		<path d="M57.04,770.62c-0.47-0.43-0.71-1-0.71-1.74c0-0.7,0.24-1.26,0.71-1.68c0.47-0.42,1.16-0.63,2.06-0.63H61v-0.7
			c0-0.39-0.12-0.68-0.35-0.87s-0.55-0.29-0.94-0.29c-0.26,0-0.48,0.04-0.66,0.11c-0.17,0.07-0.31,0.17-0.41,0.29
			c-0.1,0.12-0.16,0.27-0.2,0.43h-1.82c0.02-0.32,0.1-0.62,0.23-0.89c0.13-0.28,0.32-0.52,0.57-0.73s0.57-0.38,0.95-0.49
			c0.39-0.12,0.84-0.18,1.38-0.18c0.58,0,1.11,0.09,1.59,0.26s0.86,0.45,1.15,0.84c0.29,0.39,0.43,0.92,0.43,1.57v5.22h-1.82v-0.99
			H61c-0.1,0.19-0.25,0.37-0.43,0.54c-0.18,0.17-0.41,0.3-0.69,0.41c-0.28,0.1-0.61,0.16-0.99,0.16
			C58.13,771.26,57.51,771.05,57.04,770.62z M60.26,769.67c0.22-0.11,0.4-0.27,0.53-0.46s0.2-0.42,0.2-0.67v-0.81h-1.49
			c-0.43,0-0.75,0.1-0.95,0.29c-0.21,0.19-0.31,0.44-0.31,0.74c0,0.37,0.13,0.64,0.39,0.81s0.55,0.26,0.88,0.26
			C59.79,769.84,60.04,769.78,60.26,769.67z"/>
		<path d="M65.2,760.62h1.93v10.53H65.2V760.62z"/>
		<path d="M29.71,778.66c0.53,0.29,0.95,0.7,1.24,1.23c0.29,0.54,0.44,1.17,0.44,1.9v0.87c0,0.77-0.15,1.42-0.44,1.96
			c-0.3,0.54-0.71,0.95-1.24,1.23s-1.15,0.42-1.86,0.42c-0.72,0-1.34-0.14-1.88-0.42c-0.54-0.28-0.95-0.69-1.25-1.23
			c-0.3-0.54-0.44-1.19-0.44-1.96v-0.86c0-0.72,0.15-1.35,0.45-1.89c0.3-0.53,0.71-0.95,1.25-1.25c0.54-0.3,1.16-0.45,1.87-0.45
			C28.55,778.23,29.17,778.38,29.71,778.66z M26.95,780.01c-0.24,0.19-0.42,0.45-0.54,0.77c-0.12,0.32-0.18,0.68-0.18,1.07v0.81
			c0,0.39,0.06,0.75,0.17,1.07c0.11,0.32,0.29,0.58,0.53,0.77c0.24,0.19,0.54,0.29,0.92,0.29s0.67-0.09,0.91-0.29
			c0.23-0.19,0.41-0.45,0.52-0.77s0.17-0.68,0.17-1.07v-0.81c0-0.4-0.06-0.75-0.18-1.07c-0.12-0.32-0.29-0.57-0.53-0.77
			c-0.24-0.19-0.53-0.29-0.89-0.29C27.48,779.73,27.18,779.82,26.95,780.01z"/>
		<path d="M36.6,786.09c-0.29-0.1-0.54-0.25-0.75-0.44c-0.21-0.19-0.37-0.42-0.49-0.7h-0.1v3.76h-1.93v-10.36h1.9v1.24h0.1
			c0.08-0.21,0.19-0.4,0.33-0.56c0.14-0.16,0.31-0.3,0.51-0.42c0.2-0.11,0.42-0.2,0.66-0.26c0.24-0.06,0.5-0.09,0.77-0.09
			c0.61,0,1.12,0.14,1.56,0.41c0.43,0.28,0.76,0.67,0.99,1.19c0.23,0.52,0.34,1.13,0.34,1.86v1.05c0,0.72-0.12,1.33-0.35,1.85
			c-0.23,0.52-0.57,0.92-1,1.19c-0.44,0.28-0.96,0.42-1.57,0.42C37.21,786.25,36.89,786.19,36.6,786.09z M37.78,784.46
			c0.24-0.17,0.42-0.41,0.55-0.72c0.13-0.31,0.19-0.69,0.19-1.14v-0.67c0-0.45-0.06-0.83-0.19-1.15c-0.13-0.31-0.31-0.55-0.55-0.72
			c-0.24-0.17-0.54-0.25-0.88-0.25c-0.33,0-0.62,0.08-0.86,0.24s-0.43,0.39-0.56,0.69s-0.2,0.65-0.2,1.06v1.01
			c0,0.38,0.07,0.71,0.21,1s0.33,0.51,0.58,0.67s0.54,0.23,0.86,0.23C37.26,784.71,37.54,784.62,37.78,784.46z"/>
		<path d="M42.97,776.51h1.88v1.93h1.72v1.48h-1.72v3.77c0,0.39,0.09,0.65,0.26,0.79c0.17,0.14,0.46,0.22,0.87,0.22
			c0.12,0,0.25,0,0.37-0.01c0.13-0.01,0.22-0.01,0.29-0.02v1.43c-0.07,0.02-0.23,0.03-0.46,0.05s-0.46,0.03-0.68,0.03
			c-0.64,0-1.15-0.08-1.53-0.23c-0.38-0.15-0.64-0.4-0.81-0.73c-0.16-0.33-0.24-0.76-0.24-1.29v-4.02h-1.18v-1.48h1.22V776.51z"/>
		<path d="M48.68,775.3c0.22-0.2,0.52-0.3,0.87-0.3c0.36,0,0.65,0.1,0.88,0.3c0.22,0.2,0.34,0.46,0.34,0.78
			c0,0.31-0.11,0.57-0.34,0.77c-0.22,0.2-0.52,0.3-0.88,0.3c-0.36,0-0.65-0.1-0.87-0.3c-0.22-0.2-0.34-0.45-0.34-0.77
			C48.35,775.76,48.46,775.5,48.68,775.3z M48.6,778.37h1.93v7.77H48.6V778.37z"/>
		<path d="M58.04,778.66c0.53,0.29,0.95,0.7,1.24,1.23c0.29,0.54,0.44,1.17,0.44,1.9v0.87c0,0.77-0.15,1.42-0.44,1.96
			c-0.3,0.54-0.71,0.95-1.24,1.23s-1.15,0.42-1.86,0.42c-0.72,0-1.34-0.14-1.88-0.42c-0.54-0.28-0.95-0.69-1.25-1.23
			c-0.3-0.54-0.44-1.19-0.44-1.96v-0.86c0-0.72,0.15-1.35,0.45-1.89c0.3-0.53,0.71-0.95,1.25-1.25c0.54-0.3,1.16-0.45,1.87-0.45
			C56.88,778.23,57.5,778.38,58.04,778.66z M55.28,780.01c-0.24,0.19-0.42,0.45-0.54,0.77c-0.12,0.32-0.18,0.68-0.18,1.07v0.81
			c0,0.39,0.06,0.75,0.17,1.07c0.11,0.32,0.29,0.58,0.53,0.77c0.24,0.19,0.54,0.29,0.92,0.29s0.67-0.09,0.91-0.29
			c0.23-0.19,0.41-0.45,0.52-0.77s0.17-0.68,0.17-1.07v-0.81c0-0.4-0.06-0.75-0.18-1.07c-0.12-0.32-0.29-0.57-0.53-0.77
			c-0.24-0.19-0.53-0.29-0.89-0.29C55.81,779.73,55.51,779.82,55.28,780.01z"/>
		<path d="M61.66,778.37h1.88v1.37h0.1c0.06-0.21,0.18-0.42,0.35-0.65c0.17-0.23,0.41-0.43,0.73-0.59s0.73-0.25,1.24-0.25
			c0.78,0,1.41,0.22,1.88,0.67c0.47,0.45,0.71,1.12,0.71,2.02v5.21h-1.93v-4.67c0-0.38-0.06-0.7-0.19-0.93
			c-0.12-0.23-0.29-0.41-0.5-0.52c-0.21-0.11-0.45-0.17-0.71-0.17c-0.35,0-0.64,0.08-0.89,0.25s-0.43,0.4-0.56,0.69
			c-0.13,0.3-0.19,0.64-0.19,1.03v4.31h-1.93V778.37z"/>
		<path d="M70.95,779.26c0.29-0.36,0.67-0.62,1.15-0.78c0.48-0.16,0.99-0.25,1.53-0.25c0.58,0,1.09,0.09,1.54,0.27
			c0.45,0.18,0.8,0.44,1.05,0.77s0.38,0.75,0.38,1.23h-1.71c-0.01-0.16-0.07-0.31-0.17-0.45c-0.1-0.14-0.24-0.26-0.43-0.35
			c-0.19-0.09-0.42-0.14-0.7-0.14c-0.39,0-0.69,0.08-0.91,0.25c-0.22,0.17-0.33,0.4-0.33,0.68c0,0.2,0.06,0.36,0.19,0.48
			s0.29,0.22,0.49,0.29c0.2,0.07,0.42,0.13,0.66,0.17c0.23,0.04,0.46,0.08,0.67,0.11c0.48,0.08,0.9,0.2,1.28,0.36
			c0.37,0.16,0.67,0.39,0.88,0.68c0.21,0.29,0.32,0.68,0.32,1.15c0,0.53-0.13,0.99-0.4,1.36c-0.26,0.38-0.64,0.67-1.14,0.87
			c-0.5,0.2-1.09,0.3-1.79,0.3c-0.66,0-1.22-0.09-1.7-0.28c-0.47-0.19-0.83-0.45-1.08-0.79s-0.37-0.74-0.37-1.21h1.87
			c0.03,0.19,0.1,0.36,0.2,0.5c0.1,0.14,0.25,0.25,0.45,0.33c0.2,0.08,0.44,0.12,0.73,0.12c0.32,0,0.58-0.04,0.78-0.13
			s0.35-0.21,0.44-0.35c0.09-0.15,0.14-0.31,0.14-0.49c0-0.25-0.09-0.44-0.27-0.56c-0.18-0.13-0.42-0.22-0.71-0.29
			c-0.29-0.07-0.61-0.13-0.94-0.19c-0.46-0.09-0.89-0.22-1.27-0.38c-0.38-0.16-0.69-0.39-0.92-0.68c-0.23-0.3-0.34-0.7-0.34-1.2
			C70.51,780.08,70.65,779.61,70.95,779.26z"/>
	</g>
</g>
</svg>
